<?xml version="1.0" encoding="UTF-8"?><svg xmlns="http://www.w3.org/2000/svg" xmlns:xlink="http://www.w3.org/1999/xlink" fill-opacity="1" color-rendering="auto" color-interpolation="auto" text-rendering="auto" stroke="black" stroke-linecap="square" width="630" stroke-miterlimit="10" shape-rendering="auto" stroke-opacity="1" fill="black" stroke-dasharray="none" font-weight="normal" stroke-width="1" height="1063" font-family="'Dialog'" font-style="normal" stroke-linejoin="miter" font-size="12px" stroke-dashoffset="0" image-rendering="auto">
  <!--Generated by ySVG 2.6-->
  <defs id="genericDefs"/>
  <g>
    <defs id="defs1">
      <clipPath clipPathUnits="userSpaceOnUse" id="clipPath1">
        <path d="M0 0 L630 0 L630 1063 L0 1063 L0 0 Z"/>
      </clipPath>
      <clipPath clipPathUnits="userSpaceOnUse" id="clipPath2">
        <path d="M62 -584 L692 -584 L692 479 L62 479 L62 -584 Z"/>
      </clipPath>
    </defs>
    <g fill="white" text-rendering="geometricPrecision" shape-rendering="geometricPrecision" transform="translate(-62,584)" stroke="white">
      <rect x="62" width="630" height="1063" y="-584" clip-path="url(#clipPath2)" stroke="none"/>
    </g>
    <g fill="rgb(104,176,227)" text-rendering="geometricPrecision" shape-rendering="geometricPrecision" transform="matrix(1,0,0,1,-62,584)" stroke="rgb(104,176,227)">
      <path d="M485 -568.1035 L485 -59 L677 -59 L677 -568.1035 ZM486 -546.1035 L486 -60 L676 -60 L676 -546.1035 Z" fill-rule="evenodd" clip-path="url(#clipPath2)" stroke="none"/>
    </g>
    <g stroke-linecap="butt" transform="matrix(1,0,0,1,-62,584)" fill="white" text-rendering="geometricPrecision" font-family="sans-serif" shape-rendering="geometricPrecision" stroke="white" stroke-miterlimit="1.45">
      <text x="487" xml:space="preserve" y="-554.0391" clip-path="url(#clipPath2)" stroke="none">MMA</text>
    </g>
    <g fill="rgb(104,176,227)" text-rendering="geometricPrecision" shape-rendering="geometricPrecision" transform="matrix(1,0,0,1,-62,584)" stroke="rgb(104,176,227)">
      <path d="M500 -534.4023 L500 -105.7012 L662 -105.7012 L662 -534.4023 ZM501 -512.4023 L501 -106.7012 L661 -106.7012 L661 -512.4023 Z" fill-rule="evenodd" clip-path="url(#clipPath2)" stroke="none"/>
    </g>
    <g stroke-linecap="butt" transform="matrix(1,0,0,1,-62,584)" fill="white" text-rendering="geometricPrecision" font-family="sans-serif" shape-rendering="geometricPrecision" stroke="white" stroke-miterlimit="1.45">
      <text x="502" xml:space="preserve" y="-520.3379" clip-path="url(#clipPath2)" stroke="none">Taxon</text>
    </g>
    <g fill="rgb(204,255,255)" text-rendering="geometricPrecision" shape-rendering="geometricPrecision" transform="matrix(1,0,0,1,-62,584)" stroke="rgb(204,255,255)">
      <rect x="546" width="72" height="30" y="-315.7012" clip-path="url(#clipPath2)" stroke="none"/>
    </g>
    <g text-rendering="geometricPrecision" stroke-miterlimit="1.45" shape-rendering="geometricPrecision" transform="matrix(1,0,0,1,-62,584)" stroke-linecap="butt">
      <rect fill="none" x="546" width="72" height="30" y="-315.7012" clip-path="url(#clipPath2)"/>
      <text x="564.334" xml:space="preserve" y="-295.9873" clip-path="url(#clipPath2)" font-family="sans-serif" stroke="none">Family</text>
    </g>
    <g fill="rgb(204,255,255)" text-rendering="geometricPrecision" shape-rendering="geometricPrecision" transform="matrix(1,0,0,1,-62,584)" stroke="rgb(204,255,255)">
      <rect x="544" width="72" height="30" y="-463.7012" clip-path="url(#clipPath2)" stroke="none"/>
    </g>
    <g text-rendering="geometricPrecision" stroke-miterlimit="1.45" shape-rendering="geometricPrecision" transform="matrix(1,0,0,1,-62,584)" stroke-linecap="butt">
      <rect fill="none" x="544" width="72" height="30" y="-463.7012" clip-path="url(#clipPath2)"/>
      <text x="557.3213" xml:space="preserve" y="-443.9873" clip-path="url(#clipPath2)" font-family="sans-serif" stroke="none">kingdom</text>
    </g>
    <g fill="rgb(204,255,255)" text-rendering="geometricPrecision" shape-rendering="geometricPrecision" transform="matrix(1,0,0,1,-62,584)" stroke="rgb(204,255,255)">
      <rect x="544" width="72" height="30" y="-426.7012" clip-path="url(#clipPath2)" stroke="none"/>
    </g>
    <g text-rendering="geometricPrecision" stroke-miterlimit="1.45" shape-rendering="geometricPrecision" transform="matrix(1,0,0,1,-62,584)" stroke-linecap="butt">
      <rect fill="none" x="544" width="72" height="30" y="-426.7012" clip-path="url(#clipPath2)"/>
      <text x="560.6582" xml:space="preserve" y="-406.9873" clip-path="url(#clipPath2)" font-family="sans-serif" stroke="none">phylum</text>
    </g>
    <g fill="rgb(204,255,255)" text-rendering="geometricPrecision" shape-rendering="geometricPrecision" transform="matrix(1,0,0,1,-62,584)" stroke="rgb(204,255,255)">
      <rect x="544" width="72" height="30" y="-389.7012" clip-path="url(#clipPath2)" stroke="none"/>
    </g>
    <g text-rendering="geometricPrecision" stroke-miterlimit="1.45" shape-rendering="geometricPrecision" transform="matrix(1,0,0,1,-62,584)" stroke-linecap="butt">
      <rect fill="none" x="544" width="72" height="30" y="-389.7012" clip-path="url(#clipPath2)"/>
      <text x="566.3301" xml:space="preserve" y="-369.9873" clip-path="url(#clipPath2)" font-family="sans-serif" stroke="none">class</text>
    </g>
    <g fill="rgb(204,255,255)" text-rendering="geometricPrecision" shape-rendering="geometricPrecision" transform="matrix(1,0,0,1,-62,584)" stroke="rgb(204,255,255)">
      <rect x="545" width="72" height="30" y="-278.7012" clip-path="url(#clipPath2)" stroke="none"/>
    </g>
    <g text-rendering="geometricPrecision" stroke-miterlimit="1.45" shape-rendering="geometricPrecision" transform="matrix(1,0,0,1,-62,584)" stroke-linecap="butt">
      <rect fill="none" x="545" width="72" height="30" y="-278.7012" clip-path="url(#clipPath2)"/>
      <text x="564.6523" xml:space="preserve" y="-258.9873" clip-path="url(#clipPath2)" font-family="sans-serif" stroke="none">genus</text>
    </g>
    <g fill="rgb(204,255,255)" text-rendering="geometricPrecision" shape-rendering="geometricPrecision" transform="matrix(1,0,0,1,-62,584)" stroke="rgb(204,255,255)">
      <rect x="535" width="92" height="30" y="-241.7012" clip-path="url(#clipPath2)" stroke="none"/>
    </g>
    <g text-rendering="geometricPrecision" stroke-miterlimit="1.45" shape-rendering="geometricPrecision" transform="matrix(1,0,0,1,-62,584)" stroke-linecap="butt">
      <rect fill="none" x="535" width="92" height="30" y="-241.7012" clip-path="url(#clipPath2)"/>
      <text x="542.3135" xml:space="preserve" y="-221.9873" clip-path="url(#clipPath2)" font-family="sans-serif" stroke="none">specificEpithet</text>
    </g>
    <g fill="rgb(204,255,255)" text-rendering="geometricPrecision" shape-rendering="geometricPrecision" transform="matrix(1,0,0,1,-62,584)" stroke="rgb(204,255,255)">
      <rect x="515" width="132" height="30" y="-204.7012" clip-path="url(#clipPath2)" stroke="none"/>
    </g>
    <g text-rendering="geometricPrecision" stroke-miterlimit="1.45" shape-rendering="geometricPrecision" transform="matrix(1,0,0,1,-62,584)" stroke-linecap="butt">
      <rect fill="none" x="515" width="132" height="30" y="-204.7012" clip-path="url(#clipPath2)"/>
      <text x="530.6416" xml:space="preserve" y="-184.9873" clip-path="url(#clipPath2)" font-family="sans-serif" stroke="none">infraspecificEpithet</text>
    </g>
    <g fill="rgb(204,255,255)" text-rendering="geometricPrecision" shape-rendering="geometricPrecision" transform="matrix(1,0,0,1,-62,584)" stroke="rgb(204,255,255)">
      <rect x="544" width="72" height="30" y="-500.7012" clip-path="url(#clipPath2)" stroke="none"/>
    </g>
    <g text-rendering="geometricPrecision" stroke-miterlimit="1.45" shape-rendering="geometricPrecision" transform="matrix(1,0,0,1,-62,584)" stroke-linecap="butt">
      <rect fill="none" x="544" width="72" height="30" y="-500.7012" clip-path="url(#clipPath2)"/>
      <text x="559.3223" xml:space="preserve" y="-480.9873" clip-path="url(#clipPath2)" font-family="sans-serif" stroke="none">taxonID</text>
    </g>
    <g fill="rgb(104,176,227)" text-rendering="geometricPrecision" shape-rendering="geometricPrecision" transform="matrix(1,0,0,1,-62,584)" stroke="rgb(104,176,227)">
      <path d="M77.5 -568.1035 L77.5 463.5518 L275 463.5518 L275 -568.1035 ZM78.5 -546.1035 L78.5 462.5518 L274 462.5518 L274 -546.1035 Z" fill-rule="evenodd" clip-path="url(#clipPath2)" stroke="none"/>
    </g>
    <g stroke-linecap="butt" transform="matrix(1,0,0,1,-62,584)" fill="white" text-rendering="geometricPrecision" font-family="sans-serif" shape-rendering="geometricPrecision" stroke="white" stroke-miterlimit="1.45">
      <text x="79.5" xml:space="preserve" y="-554.0391" clip-path="url(#clipPath2)" stroke="none">DwC</text>
    </g>
    <g fill="rgb(104,176,227)" text-rendering="geometricPrecision" shape-rendering="geometricPrecision" transform="matrix(1,0,0,1,-62,584)" stroke="rgb(104,176,227)">
      <path d="M92.5 -534.4023 L92.5 -100.7012 L260 -100.7012 L260 -534.4023 ZM93.5 -512.4023 L93.5 -101.7012 L259 -101.7012 L259 -512.4023 Z" fill-rule="evenodd" clip-path="url(#clipPath2)" stroke="none"/>
    </g>
    <g stroke-linecap="butt" transform="matrix(1,0,0,1,-62,584)" fill="white" text-rendering="geometricPrecision" font-family="sans-serif" shape-rendering="geometricPrecision" stroke="white" stroke-miterlimit="1.45">
      <text x="94.5" xml:space="preserve" y="-520.3379" clip-path="url(#clipPath2)" stroke="none">Taxon</text>
    </g>
    <g fill="rgb(204,255,255)" text-rendering="geometricPrecision" shape-rendering="geometricPrecision" transform="matrix(1,0,0,1,-62,584)" stroke="rgb(204,255,255)">
      <rect x="137.5" width="72" height="30" y="-315.7012" clip-path="url(#clipPath2)" stroke="none"/>
    </g>
    <g text-rendering="geometricPrecision" stroke-miterlimit="1.45" shape-rendering="geometricPrecision" transform="matrix(1,0,0,1,-62,584)" stroke-linecap="butt">
      <rect fill="none" x="137.5" width="72" height="30" y="-315.7012" clip-path="url(#clipPath2)"/>
      <text x="155.834" xml:space="preserve" y="-295.9873" clip-path="url(#clipPath2)" font-family="sans-serif" stroke="none">Family</text>
    </g>
    <g fill="rgb(204,255,255)" text-rendering="geometricPrecision" shape-rendering="geometricPrecision" transform="matrix(1,0,0,1,-62,584)" stroke="rgb(204,255,255)">
      <rect x="137.5" width="72" height="30" y="-463.7012" clip-path="url(#clipPath2)" stroke="none"/>
    </g>
    <g text-rendering="geometricPrecision" stroke-miterlimit="1.45" shape-rendering="geometricPrecision" transform="matrix(1,0,0,1,-62,584)" stroke-linecap="butt">
      <rect fill="none" x="137.5" width="72" height="30" y="-463.7012" clip-path="url(#clipPath2)"/>
      <text x="150.8213" xml:space="preserve" y="-443.9873" clip-path="url(#clipPath2)" font-family="sans-serif" stroke="none">kingdom</text>
    </g>
    <g fill="rgb(204,255,255)" text-rendering="geometricPrecision" shape-rendering="geometricPrecision" transform="matrix(1,0,0,1,-62,584)" stroke="rgb(204,255,255)">
      <rect x="137.5" width="72" height="30" y="-426.7012" clip-path="url(#clipPath2)" stroke="none"/>
    </g>
    <g text-rendering="geometricPrecision" stroke-miterlimit="1.45" shape-rendering="geometricPrecision" transform="matrix(1,0,0,1,-62,584)" stroke-linecap="butt">
      <rect fill="none" x="137.5" width="72" height="30" y="-426.7012" clip-path="url(#clipPath2)"/>
      <text x="154.1582" xml:space="preserve" y="-406.9873" clip-path="url(#clipPath2)" font-family="sans-serif" stroke="none">phylum</text>
    </g>
    <g fill="rgb(204,255,255)" text-rendering="geometricPrecision" shape-rendering="geometricPrecision" transform="matrix(1,0,0,1,-62,584)" stroke="rgb(204,255,255)">
      <rect x="137.5" width="72" height="30" y="-389.7012" clip-path="url(#clipPath2)" stroke="none"/>
    </g>
    <g text-rendering="geometricPrecision" stroke-miterlimit="1.45" shape-rendering="geometricPrecision" transform="matrix(1,0,0,1,-62,584)" stroke-linecap="butt">
      <rect fill="none" x="137.5" width="72" height="30" y="-389.7012" clip-path="url(#clipPath2)"/>
      <text x="159.8301" xml:space="preserve" y="-369.9873" clip-path="url(#clipPath2)" font-family="sans-serif" stroke="none">class</text>
    </g>
    <g fill="rgb(204,255,255)" text-rendering="geometricPrecision" shape-rendering="geometricPrecision" transform="matrix(1,0,0,1,-62,584)" stroke="rgb(204,255,255)">
      <rect x="137.5" width="72" height="30" y="-278.7012" clip-path="url(#clipPath2)" stroke="none"/>
    </g>
    <g text-rendering="geometricPrecision" stroke-miterlimit="1.45" shape-rendering="geometricPrecision" transform="matrix(1,0,0,1,-62,584)" stroke-linecap="butt">
      <rect fill="none" x="137.5" width="72" height="30" y="-278.7012" clip-path="url(#clipPath2)"/>
      <text x="157.1523" xml:space="preserve" y="-258.9873" clip-path="url(#clipPath2)" font-family="sans-serif" stroke="none">genus</text>
    </g>
    <g fill="rgb(204,255,255)" text-rendering="geometricPrecision" shape-rendering="geometricPrecision" transform="matrix(1,0,0,1,-62,584)" stroke="rgb(204,255,255)">
      <rect x="127.5" width="92" height="30" y="-241.7012" clip-path="url(#clipPath2)" stroke="none"/>
    </g>
    <g text-rendering="geometricPrecision" stroke-miterlimit="1.45" shape-rendering="geometricPrecision" transform="matrix(1,0,0,1,-62,584)" stroke-linecap="butt">
      <rect fill="none" x="127.5" width="92" height="30" y="-241.7012" clip-path="url(#clipPath2)"/>
      <text x="134.8135" xml:space="preserve" y="-221.9873" clip-path="url(#clipPath2)" font-family="sans-serif" stroke="none">specificEpithet</text>
    </g>
    <g fill="rgb(204,255,255)" text-rendering="geometricPrecision" shape-rendering="geometricPrecision" transform="matrix(1,0,0,1,-62,584)" stroke="rgb(204,255,255)">
      <rect x="107.5" width="132" height="30" y="-204.7012" clip-path="url(#clipPath2)" stroke="none"/>
    </g>
    <g text-rendering="geometricPrecision" stroke-miterlimit="1.45" shape-rendering="geometricPrecision" transform="matrix(1,0,0,1,-62,584)" stroke-linecap="butt">
      <rect fill="none" x="107.5" width="132" height="30" y="-204.7012" clip-path="url(#clipPath2)"/>
      <text x="123.1416" xml:space="preserve" y="-184.9873" clip-path="url(#clipPath2)" font-family="sans-serif" stroke="none">infraspecificEpithet</text>
    </g>
    <g fill="rgb(204,255,255)" text-rendering="geometricPrecision" shape-rendering="geometricPrecision" transform="matrix(1,0,0,1,-62,584)" stroke="rgb(204,255,255)">
      <rect x="137.5" width="72" height="30" y="-500.7012" clip-path="url(#clipPath2)" stroke="none"/>
    </g>
    <g text-rendering="geometricPrecision" stroke-miterlimit="1.45" shape-rendering="geometricPrecision" transform="matrix(1,0,0,1,-62,584)" stroke-linecap="butt">
      <rect fill="none" x="137.5" width="72" height="30" y="-500.7012" clip-path="url(#clipPath2)"/>
      <text x="152.8223" xml:space="preserve" y="-480.9873" clip-path="url(#clipPath2)" font-family="sans-serif" stroke="none">taxonID</text>
    </g>
    <g fill="rgb(204,255,255)" text-rendering="geometricPrecision" shape-rendering="geometricPrecision" transform="matrix(1,0,0,1,-62,584)" stroke="rgb(204,255,255)">
      <rect x="137.5" width="72" height="30" y="-352.7012" clip-path="url(#clipPath2)" stroke="none"/>
    </g>
    <g text-rendering="geometricPrecision" stroke-miterlimit="1.45" shape-rendering="geometricPrecision" transform="matrix(1,0,0,1,-62,584)" stroke-linecap="butt">
      <rect fill="none" x="137.5" width="72" height="30" y="-352.7012" clip-path="url(#clipPath2)"/>
      <text x="159.4932" xml:space="preserve" y="-332.9873" clip-path="url(#clipPath2)" font-family="sans-serif" stroke="none">order</text>
      <path fill="none" d="M209.5 -300.7012 L538 -300.7012" clip-path="url(#clipPath2)"/>
      <path d="M546 -300.7012 L534 -305.7012 L537 -300.7012 L534 -295.7012 Z" clip-path="url(#clipPath2)" stroke="none"/>
      <path fill="none" d="M209.5 -448.7012 L536 -448.7012" clip-path="url(#clipPath2)"/>
      <path d="M544 -448.7012 L532 -453.7012 L535 -448.7012 L532 -443.7012 Z" clip-path="url(#clipPath2)" stroke="none"/>
      <path fill="none" d="M209.5 -411.7012 L536 -411.7012" clip-path="url(#clipPath2)"/>
      <path d="M544 -411.7012 L532 -416.7012 L535 -411.7012 L532 -406.7012 Z" clip-path="url(#clipPath2)" stroke="none"/>
      <path fill="none" d="M209.5 -374.7012 L536 -374.7012" clip-path="url(#clipPath2)"/>
      <path d="M544 -374.7012 L532 -379.7012 L535 -374.7012 L532 -369.7012 Z" clip-path="url(#clipPath2)" stroke="none"/>
      <path fill="none" d="M209.5 -263.7012 L537 -263.7012" clip-path="url(#clipPath2)"/>
      <path d="M545 -263.7012 L533 -268.7012 L536 -263.7012 L533 -258.7012 Z" clip-path="url(#clipPath2)" stroke="none"/>
      <path fill="none" d="M219.5 -226.7012 L527 -226.7012" clip-path="url(#clipPath2)"/>
      <path d="M535 -226.7012 L523 -231.7012 L526 -226.7012 L523 -221.7012 Z" clip-path="url(#clipPath2)" stroke="none"/>
      <path fill="none" d="M239.5 -189.7012 L507 -189.7012" clip-path="url(#clipPath2)"/>
      <path d="M515 -189.7012 L503 -194.7012 L506 -189.7012 L503 -184.7012 Z" clip-path="url(#clipPath2)" stroke="none"/>
      <path fill="none" d="M209.5 -485.7012 L536 -485.7012" clip-path="url(#clipPath2)"/>
      <path d="M544 -485.7012 L532 -490.7012 L535 -485.7012 L532 -480.7012 Z" clip-path="url(#clipPath2)" stroke="none"/>
    </g>
    <g fill="rgb(104,176,227)" text-rendering="geometricPrecision" shape-rendering="geometricPrecision" transform="matrix(1,0,0,1,-62,584)" stroke="rgb(104,176,227)">
      <path d="M92.5 -76.5518 L92.5 432.5518 L260 432.5518 L260 -76.5518 ZM93.5 -54.5518 L93.5 431.5518 L259 431.5518 L259 -54.5518 Z" fill-rule="evenodd" clip-path="url(#clipPath2)" stroke="none"/>
    </g>
    <g stroke-linecap="butt" transform="matrix(1,0,0,1,-62,584)" fill="white" text-rendering="geometricPrecision" font-family="sans-serif" shape-rendering="geometricPrecision" stroke="white" stroke-miterlimit="1.45">
      <text x="94.5" xml:space="preserve" y="-62.4873" clip-path="url(#clipPath2)" stroke="none">IUCN</text>
    </g>
    <g fill="rgb(204,255,255)" text-rendering="geometricPrecision" shape-rendering="geometricPrecision" transform="matrix(1,0,0,1,-62,584)" stroke="rgb(204,255,255)">
      <rect x="544" width="72" height="30" y="-352.7012" clip-path="url(#clipPath2)" stroke="none"/>
    </g>
    <g text-rendering="geometricPrecision" stroke-miterlimit="1.45" shape-rendering="geometricPrecision" transform="matrix(1,0,0,1,-62,584)" stroke-linecap="butt">
      <rect fill="none" x="544" width="72" height="30" y="-352.7012" clip-path="url(#clipPath2)"/>
      <text x="565.9932" xml:space="preserve" y="-332.9873" clip-path="url(#clipPath2)" font-family="sans-serif" stroke="none">order</text>
      <path fill="none" d="M209.5 -337.7012 L536 -337.7012" clip-path="url(#clipPath2)"/>
      <path d="M544 -337.7012 L532 -342.7012 L535 -337.7012 L532 -332.7012 Z" clip-path="url(#clipPath2)" stroke="none"/>
    </g>
  </g>
</svg>
