<?xml version="1.0" encoding="UTF-8"?><svg xmlns="http://www.w3.org/2000/svg" xmlns:xlink="http://www.w3.org/1999/xlink" fill-opacity="1" color-rendering="auto" color-interpolation="auto" text-rendering="auto" stroke="black" stroke-linecap="square" width="584" stroke-miterlimit="10" shape-rendering="auto" stroke-opacity="1" fill="black" stroke-dasharray="none" font-weight="normal" stroke-width="1" height="497" font-family="'Dialog'" font-style="normal" stroke-linejoin="miter" font-size="12px" stroke-dashoffset="0" image-rendering="auto">
  <!--Generated by ySVG 2.6-->
  <defs id="genericDefs"/>
  <g>
    <defs id="defs1">
      <clipPath clipPathUnits="userSpaceOnUse" id="clipPath1">
        <path d="M0 0 L584 0 L584 497 L0 497 L0 0 Z"/>
      </clipPath>
      <clipPath clipPathUnits="userSpaceOnUse" id="clipPath2">
        <path d="M92 -541 L676 -541 L676 -44 L92 -44 L92 -541 Z"/>
      </clipPath>
    </defs>
    <g fill="white" text-rendering="geometricPrecision" shape-rendering="geometricPrecision" transform="translate(-92,541)" stroke="white">
      <rect x="92" width="584" height="497" y="-541" clip-path="url(#clipPath2)" stroke="none"/>
    </g>
    <g fill="rgb(104,176,227)" text-rendering="geometricPrecision" shape-rendering="geometricPrecision" transform="matrix(1,0,0,1,-92,541)" stroke="rgb(104,176,227)">
      <path d="M529 -525.7012 L529 -59 L661 -59 L661 -525.7012 ZM530 -503.7012 L530 -60 L660 -60 L660 -503.7012 Z" fill-rule="evenodd" clip-path="url(#clipPath2)" stroke="none"/>
    </g>
    <g stroke-linecap="butt" transform="matrix(1,0,0,1,-92,541)" fill="white" text-rendering="geometricPrecision" font-family="sans-serif" shape-rendering="geometricPrecision" stroke="white" stroke-miterlimit="1.45">
      <text x="531" xml:space="preserve" y="-511.6367" clip-path="url(#clipPath2)" stroke="none">MMA</text>
    </g>
    <g fill="rgb(104,176,227)" text-rendering="geometricPrecision" shape-rendering="geometricPrecision" transform="matrix(1,0,0,1,-92,541)" stroke="rgb(104,176,227)">
      <path d="M544 -492 L544 -283 L646 -283 L646 -492 ZM545 -470 L545 -284 L645 -284 L645 -470 Z" fill-rule="evenodd" clip-path="url(#clipPath2)" stroke="none"/>
    </g>
    <g stroke-linecap="butt" transform="matrix(1,0,0,1,-92,541)" fill="white" text-rendering="geometricPrecision" font-family="sans-serif" shape-rendering="geometricPrecision" stroke="white" stroke-miterlimit="1.45">
      <text x="546" xml:space="preserve" y="-477.9355" clip-path="url(#clipPath2)" stroke="none">Taxon</text>
    </g>
    <g fill="rgb(204,255,255)" text-rendering="geometricPrecision" shape-rendering="geometricPrecision" transform="matrix(1,0,0,1,-92,541)" stroke="rgb(204,255,255)">
      <rect x="559" width="72" height="30" y="-433.7012" clip-path="url(#clipPath2)" stroke="none"/>
    </g>
    <g text-rendering="geometricPrecision" stroke-miterlimit="1.45" shape-rendering="geometricPrecision" transform="matrix(1,0,0,1,-92,541)" stroke-linecap="butt">
      <rect fill="none" x="559" width="72" height="30" y="-433.7012" clip-path="url(#clipPath2)"/>
      <text x="577.334" xml:space="preserve" y="-413.9873" clip-path="url(#clipPath2)" font-family="sans-serif" stroke="none">Family</text>
    </g>
    <g fill="rgb(104,176,227)" text-rendering="geometricPrecision" shape-rendering="geometricPrecision" transform="matrix(1,0,0,1,-92,541)" stroke="rgb(104,176,227)">
      <path d="M107.5 -525.7012 L107.5 -164.2988 L250.5 -164.2988 L250.5 -525.7012 ZM108.5 -503.7012 L108.5 -165.2988 L249.5 -165.2988 L249.5 -503.7012 Z" fill-rule="evenodd" clip-path="url(#clipPath2)" stroke="none"/>
    </g>
    <g stroke-linecap="butt" transform="matrix(1,0,0,1,-92,541)" fill="white" text-rendering="geometricPrecision" font-family="sans-serif" shape-rendering="geometricPrecision" stroke="white" stroke-miterlimit="1.45">
      <text x="109.5" xml:space="preserve" y="-511.6367" clip-path="url(#clipPath2)" stroke="none">DwC</text>
    </g>
    <g fill="rgb(104,176,227)" text-rendering="geometricPrecision" shape-rendering="geometricPrecision" transform="matrix(1,0,0,1,-92,541)" stroke="rgb(104,176,227)">
      <path d="M122.5 -463.3506 L122.5 -198.6494 L235.5 -198.6494 L235.5 -463.3506 ZM123.5 -441.3506 L123.5 -199.6494 L234.5 -199.6494 L234.5 -441.3506 Z" fill-rule="evenodd" clip-path="url(#clipPath2)" stroke="none"/>
    </g>
    <g stroke-linecap="butt" transform="matrix(1,0,0,1,-92,541)" fill="white" text-rendering="geometricPrecision" font-family="sans-serif" shape-rendering="geometricPrecision" stroke="white" stroke-miterlimit="1.45">
      <text x="124.5" xml:space="preserve" y="-449.2861" clip-path="url(#clipPath2)" stroke="none">Taxon</text>
    </g>
    <g fill="rgb(204,255,255)" text-rendering="geometricPrecision" shape-rendering="geometricPrecision" transform="matrix(1,0,0,1,-92,541)" stroke="rgb(204,255,255)">
      <rect x="137.5" width="72" height="30" y="-392.6494" clip-path="url(#clipPath2)" stroke="none"/>
    </g>
    <g text-rendering="geometricPrecision" stroke-miterlimit="1.45" shape-rendering="geometricPrecision" transform="matrix(1,0,0,1,-92,541)" stroke-linecap="butt">
      <rect fill="none" x="137.5" width="72" height="30" y="-392.6494" clip-path="url(#clipPath2)"/>
      <text x="155.834" xml:space="preserve" y="-372.9355" clip-path="url(#clipPath2)" font-family="sans-serif" stroke="none">Family</text>
      <path fill="none" d="M209.5 -381.1556 L551.0377 -414.4195" clip-path="url(#clipPath2)"/>
      <path d="M559 -415.195 L546.5718 -419.0082 L550.0424 -414.3226 L547.5412 -409.0553 Z" clip-path="url(#clipPath2)" stroke="none"/>
    </g>
  </g>
</svg>
