<?xml version="1.0" encoding="UTF-8"?><svg xmlns="http://www.w3.org/2000/svg" xmlns:xlink="http://www.w3.org/1999/xlink" fill-opacity="1" color-rendering="auto" color-interpolation="auto" text-rendering="auto" stroke="black" stroke-linecap="square" width="814" stroke-miterlimit="10" shape-rendering="auto" stroke-opacity="1" fill="black" stroke-dasharray="none" font-weight="normal" stroke-width="1" height="1150" font-family="'Dialog'" font-style="normal" stroke-linejoin="miter" font-size="12px" stroke-dashoffset="0" image-rendering="auto">
  <!--Generated by ySVG 2.6-->
  <defs id="genericDefs"/>
  <g>
    <defs id="defs1">
      <linearGradient x1="419" gradientUnits="userSpaceOnUse" x2="499" y1="130.5977" y2="170.5977" id="linearGradient1" spreadMethod="reflect">
        <stop stop-opacity="1" stop-color="rgb(232,238,247)" offset="0%"/>
        <stop stop-opacity="1" stop-color="rgb(232,238,247)" offset="100%"/>
      </linearGradient>
      <linearGradient x1="569" gradientUnits="userSpaceOnUse" x2="649" y1="134.8994" y2="174.8994" id="linearGradient2" spreadMethod="reflect">
        <stop stop-opacity="1" stop-color="rgb(232,238,247)" offset="0%"/>
        <stop stop-opacity="1" stop-color="rgb(232,238,247)" offset="100%"/>
      </linearGradient>
      <linearGradient x1="660" gradientUnits="userSpaceOnUse" x2="740" y1="134.8994" y2="174.8994" id="linearGradient3" spreadMethod="reflect">
        <stop stop-opacity="1" stop-color="rgb(232,238,247)" offset="0%"/>
        <stop stop-opacity="1" stop-color="rgb(232,238,247)" offset="100%"/>
      </linearGradient>
      <linearGradient x1="908" gradientUnits="userSpaceOnUse" x2="988" y1="136.5977" y2="176.5977" id="linearGradient4" spreadMethod="reflect">
        <stop stop-opacity="1" stop-color="rgb(232,238,247)" offset="0%"/>
        <stop stop-opacity="1" stop-color="rgb(232,238,247)" offset="100%"/>
      </linearGradient>
      <clipPath clipPathUnits="userSpaceOnUse" id="clipPath1">
        <path d="M0 0 L814 0 L814 1150 L0 1150 L0 0 Z"/>
      </clipPath>
      <clipPath clipPathUnits="userSpaceOnUse" id="clipPath2">
        <path d="M258 48 L1072 48 L1072 1198 L258 1198 L258 48 Z"/>
      </clipPath>
    </defs>
    <g fill="white" text-rendering="geometricPrecision" shape-rendering="geometricPrecision" transform="translate(-258,-48)" stroke="white">
      <rect x="258" width="814" height="1150" y="48" clip-path="url(#clipPath2)" stroke="none"/>
    </g>
    <g fill="rgb(104,176,227)" text-rendering="geometricPrecision" shape-rendering="geometricPrecision" transform="matrix(1,0,0,1,-258,-48)" stroke="rgb(104,176,227)">
      <path d="M389 63.1953 L389 230.7988 L1056.6758 230.7988 L1056.6758 63.1953 ZM390 85.1953 L390 229.7988 L1055.6758 229.7988 L1055.6758 85.1953 Z" fill-rule="evenodd" clip-path="url(#clipPath2)" stroke="none"/>
    </g>
    <g stroke-linecap="butt" transform="matrix(1,0,0,1,-258,-48)" fill="white" text-rendering="geometricPrecision" font-family="sans-serif" shape-rendering="geometricPrecision" stroke="white" stroke-miterlimit="1.45">
      <text x="391" xml:space="preserve" y="77.2598" clip-path="url(#clipPath2)" stroke="none">Recursos</text>
    </g>
    <g fill="rgb(104,176,227)" text-rendering="geometricPrecision" shape-rendering="geometricPrecision" transform="matrix(1,0,0,1,-258,-48)" stroke="rgb(104,176,227)">
      <path d="M404 96.8965 L404 189.8994 L549 189.8994 L549 96.8965 ZM405 118.8965 L405 188.8994 L548 188.8994 L548 118.8965 Z" fill-rule="evenodd" clip-path="url(#clipPath2)" stroke="none"/>
    </g>
    <g stroke-linecap="butt" transform="matrix(1,0,0,1,-258,-48)" fill="white" text-rendering="geometricPrecision" font-family="sans-serif" shape-rendering="geometricPrecision" stroke="white" stroke-miterlimit="1.45">
      <text x="406" xml:space="preserve" y="110.9609" clip-path="url(#clipPath2)" stroke="none">CNCFlora</text>
    </g>
    <g fill="url(#linearGradient1)" text-rendering="geometricPrecision" shape-rendering="geometricPrecision" transform="matrix(1,0,0,1,-258,-48)" stroke="url(#linearGradient1)">
      <rect x="419" y="130.5977" clip-path="url(#clipPath2)" width="80" rx="20" ry="20" height="40" stroke="none"/>
    </g>
    <g text-rendering="geometricPrecision" stroke-miterlimit="1.45" shape-rendering="geometricPrecision" transform="matrix(1,0,0,1,-258,-48)" stroke-linecap="butt">
      <rect x="419" y="130.5977" clip-path="url(#clipPath2)" fill="none" width="80" rx="20" ry="20" height="40"/>
      <text x="426.6562" xml:space="preserve" y="155.3115" clip-path="url(#clipPath2)" font-family="sans-serif" stroke="none">WebService</text>
    </g>
    <g fill="rgb(104,176,227)" text-rendering="geometricPrecision" shape-rendering="geometricPrecision" transform="matrix(1,0,0,1,-258,-48)" stroke="rgb(104,176,227)">
      <path d="M554 100.4971 L554 215.7988 L781 215.7988 L781 100.4971 ZM555 122.4971 L555 214.7988 L780 214.7988 L780 122.4971 Z" fill-rule="evenodd" clip-path="url(#clipPath2)" stroke="none"/>
    </g>
    <g stroke-linecap="butt" transform="matrix(1,0,0,1,-258,-48)" fill="white" text-rendering="geometricPrecision" font-family="sans-serif" shape-rendering="geometricPrecision" stroke="white" stroke-miterlimit="1.45">
      <text x="556" xml:space="preserve" y="114.5615" clip-path="url(#clipPath2)" stroke="none">Flora</text>
    </g>
    <g fill="url(#linearGradient2)" text-rendering="geometricPrecision" shape-rendering="geometricPrecision" transform="matrix(1,0,0,1,-258,-48)" stroke="url(#linearGradient2)">
      <rect x="569" y="134.8994" clip-path="url(#clipPath2)" width="80" rx="20" ry="20" height="40" stroke="none"/>
    </g>
    <g text-rendering="geometricPrecision" stroke-miterlimit="1.45" shape-rendering="geometricPrecision" transform="matrix(1,0,0,1,-258,-48)" stroke-linecap="butt">
      <rect x="569" y="134.8994" clip-path="url(#clipPath2)" fill="none" width="80" rx="20" ry="20" height="40"/>
      <text x="575.335" xml:space="preserve" y="159.6133" clip-path="url(#clipPath2)" font-family="sans-serif" stroke="none">IPT - DwC-A</text>
    </g>
    <g fill="url(#linearGradient3)" text-rendering="geometricPrecision" shape-rendering="geometricPrecision" transform="matrix(1,0,0,1,-258,-48)" stroke="url(#linearGradient3)">
      <rect x="660" y="134.8994" clip-path="url(#clipPath2)" width="80" rx="20" ry="20" height="40" stroke="none"/>
    </g>
    <g text-rendering="geometricPrecision" stroke-miterlimit="1.45" shape-rendering="geometricPrecision" transform="matrix(1,0,0,1,-258,-48)" stroke-linecap="butt">
      <rect x="660" y="134.8994" clip-path="url(#clipPath2)" fill="none" width="80" rx="20" ry="20" height="40"/>
      <text x="667.6562" xml:space="preserve" y="159.6133" clip-path="url(#clipPath2)" font-family="sans-serif" stroke="none">WebService</text>
    </g>
    <g fill="rgb(104,176,227)" text-rendering="geometricPrecision" shape-rendering="geometricPrecision" transform="matrix(1,0,0,1,-258,-48)" stroke="rgb(104,176,227)">
      <path d="M786 100.4971 L786 189.8994 L890.3379 189.8994 L890.3379 100.4971 ZM787 122.4971 L787 188.8994 L889.3379 188.8994 L889.3379 122.4971 Z" fill-rule="evenodd" clip-path="url(#clipPath2)" stroke="none"/>
    </g>
    <g stroke-linecap="butt" transform="matrix(1,0,0,1,-258,-48)" fill="white" text-rendering="geometricPrecision" font-family="sans-serif" shape-rendering="geometricPrecision" stroke="white" stroke-miterlimit="1.45">
      <text x="788" xml:space="preserve" y="114.5615" clip-path="url(#clipPath2)" stroke="none">SALVE</text>
    </g>
    <g fill="rgb(104,176,227)" text-rendering="geometricPrecision" shape-rendering="geometricPrecision" transform="matrix(1,0,0,1,-258,-48)" stroke="rgb(104,176,227)">
      <path d="M893 100.4971 L893 191.5977 L1041.6758 191.5977 L1041.6758 100.4971 ZM894 122.4971 L894 190.5977 L1040.6758 190.5977 L1040.6758 122.4971 Z" fill-rule="evenodd" clip-path="url(#clipPath2)" stroke="none"/>
    </g>
    <g stroke-linecap="butt" transform="matrix(1,0,0,1,-258,-48)" fill="white" text-rendering="geometricPrecision" font-family="sans-serif" shape-rendering="geometricPrecision" stroke="white" stroke-miterlimit="1.45">
      <text x="895" xml:space="preserve" y="114.5615" clip-path="url(#clipPath2)" stroke="none">Fauna</text>
    </g>
    <g fill="url(#linearGradient4)" text-rendering="geometricPrecision" shape-rendering="geometricPrecision" transform="matrix(1,0,0,1,-258,-48)" stroke="url(#linearGradient4)">
      <rect x="908" y="136.5977" clip-path="url(#clipPath2)" width="80" rx="20" ry="20" height="40" stroke="none"/>
    </g>
    <g text-rendering="geometricPrecision" stroke-miterlimit="1.45" shape-rendering="geometricPrecision" transform="matrix(1,0,0,1,-258,-48)" stroke-linecap="butt">
      <rect x="908" y="136.5977" clip-path="url(#clipPath2)" fill="none" width="80" rx="20" ry="20" height="40"/>
      <text x="915.6562" xml:space="preserve" y="161.3115" clip-path="url(#clipPath2)" font-family="sans-serif" stroke="none">WebService</text>
    </g>
    <g fill="rgb(255,204,153)" text-rendering="geometricPrecision" shape-rendering="geometricPrecision" transform="matrix(1,0,0,1,-258,-48)" stroke="rgb(255,204,153)">
      <path d="M885.3379 268.3018 L1049.3379 268.3018 L1049.3379 308.3018 L885.3379 308.3018 Z" stroke="none" clip-path="url(#clipPath2)"/>
    </g>
    <g text-rendering="geometricPrecision" stroke-miterlimit="1.45" shape-rendering="geometricPrecision" transform="matrix(1,0,0,1,-258,-48)" stroke-linecap="butt">
      <path fill="none" d="M885.3379 268.3018 L1049.3379 268.3018 L1049.3379 308.3018 L885.3379 308.3018 Z" clip-path="url(#clipPath2)"/>
      <text x="895.3086" xml:space="preserve" y="285.665" clip-path="url(#clipPath2)" font-family="sans-serif" stroke="none">Sistematização dos termos</text>
      <text x="907.9736" xml:space="preserve" y="300.3662" clip-path="url(#clipPath2)" font-family="sans-serif" stroke="none">presentes nos recurso</text>
    </g>
    <g fill="rgb(204,255,204)" text-rendering="geometricPrecision" shape-rendering="geometricPrecision" transform="matrix(1,0,0,1,-258,-48)" stroke="rgb(204,255,204)">
      <path d="M273.6621 363.8018 L288.2958 341.3018 L405.3655 341.3018 L420 363.8018 L405.3655 386.3018 L288.2958 386.3018 Z" fill-rule="evenodd" clip-path="url(#clipPath2)" stroke="none"/>
    </g>
    <g text-rendering="geometricPrecision" stroke-miterlimit="1.45" shape-rendering="geometricPrecision" transform="matrix(1,0,0,1,-258,-48)" stroke-linecap="butt">
      <path fill="none" d="M273.6621 363.8018 L288.2958 341.3018 L405.3655 341.3018 L420 363.8018 L405.3655 386.3018 L288.2958 386.3018 Z" fill-rule="evenodd" clip-path="url(#clipPath2)"/>
      <text x="292.1338" xml:space="preserve" y="361.165" clip-path="url(#clipPath2)" font-family="sans-serif" stroke="none">Oficina de Demanda</text>
      <text x="306.4863" xml:space="preserve" y="375.8662" clip-path="url(#clipPath2)" font-family="sans-serif" stroke="none">do MMA/DESP</text>
    </g>
    <g fill="rgb(204,255,204)" text-rendering="geometricPrecision" shape-rendering="geometricPrecision" transform="matrix(1,0,0,1,-258,-48)" stroke="rgb(204,255,204)">
      <path d="M665.6621 482.5 L683.3957 450 L825.2664 450 L843 482.5 L825.2664 515 L683.3957 515 Z" fill-rule="evenodd" clip-path="url(#clipPath2)" stroke="none"/>
    </g>
    <g text-rendering="geometricPrecision" stroke-miterlimit="1.45" shape-rendering="geometricPrecision" transform="matrix(1,0,0,1,-258,-48)" stroke-linecap="butt">
      <path fill="none" d="M665.6621 482.5 L683.3957 450 L825.2664 450 L843 482.5 L825.2664 515 L683.3957 515 Z" fill-rule="evenodd" clip-path="url(#clipPath2)"/>
      <text x="685.29" xml:space="preserve" y="472.5127" clip-path="url(#clipPath2)" font-family="sans-serif" stroke="none">Oficina para consolidação</text>
      <text x="688.293" xml:space="preserve" y="487.2139" clip-path="url(#clipPath2)" font-family="sans-serif" stroke="none">dos termos demandados</text>
      <text x="686.9629" xml:space="preserve" y="501.915" clip-path="url(#clipPath2)" font-family="sans-serif" stroke="none">e presentes nos recursos</text>
      <path fill="none" d="M867.8605 230.8105 L925.8032 264.2975" clip-path="url(#clipPath2)"/>
      <path d="M932.7297 268.3005 L924.8419 257.9669 L924.9374 263.7971 L919.8381 266.625 Z" clip-path="url(#clipPath2)" stroke="none"/>
    </g>
    <g fill="rgb(104,176,227)" text-rendering="geometricPrecision" shape-rendering="geometricPrecision" transform="matrix(1,0,0,1,-258,-48)" stroke="rgb(104,176,227)">
      <path d="M946.6758 654.1494 L946.6758 846.8506 L1056.6758 846.8506 L1056.6758 654.1494 ZM947.6758 676.1494 L947.6758 845.8506 L1055.6758 845.8506 L1055.6758 676.1494 Z" fill-rule="evenodd" clip-path="url(#clipPath2)" stroke="none"/>
    </g>
    <g stroke-linecap="butt" transform="matrix(1,0,0,1,-258,-48)" fill="white" text-rendering="geometricPrecision" font-family="sans-serif" shape-rendering="geometricPrecision" stroke="white" stroke-miterlimit="1.45">
      <text x="948.6758" xml:space="preserve" y="668.2139" clip-path="url(#clipPath2)" stroke="none">Padrões</text>
    </g>
    <g fill="rgb(232,238,247)" text-rendering="geometricPrecision" shape-rendering="geometricPrecision" transform="matrix(1,0,0,1,-258,-48)" stroke="rgb(232,238,247)">
      <path d="M971.6758 687.8506 L1031.6758 687.8506 L1041.6758 697.8506 L1041.6758 727.8506 L961.6758 727.8506 L961.6758 697.8506 Z" stroke="none" clip-path="url(#clipPath2)"/>
    </g>
    <g text-rendering="geometricPrecision" stroke-miterlimit="1.45" shape-rendering="geometricPrecision" transform="matrix(1,0,0,1,-258,-48)" stroke-linecap="butt">
      <path fill="none" d="M971.6758 687.8506 L1031.6758 687.8506 L1041.6758 697.8506 L1041.6758 727.8506 L961.6758 727.8506 L961.6758 697.8506 Z" clip-path="url(#clipPath2)"/>
      <text x="987.0098" xml:space="preserve" y="712.5645" clip-path="url(#clipPath2)" font-family="sans-serif" stroke="none">IUCN</text>
    </g>
    <g fill="rgb(232,238,247)" text-rendering="geometricPrecision" shape-rendering="geometricPrecision" transform="matrix(1,0,0,1,-258,-48)" stroke="rgb(232,238,247)">
      <path d="M971.6758 739.8506 L1031.6758 739.8506 L1041.6758 749.8506 L1041.6758 779.8506 L961.6758 779.8506 L961.6758 749.8506 Z" stroke="none" clip-path="url(#clipPath2)"/>
    </g>
    <g text-rendering="geometricPrecision" stroke-miterlimit="1.45" shape-rendering="geometricPrecision" transform="matrix(1,0,0,1,-258,-48)" stroke-linecap="butt">
      <path fill="none" d="M971.6758 739.8506 L1031.6758 739.8506 L1041.6758 749.8506 L1041.6758 779.8506 L961.6758 779.8506 L961.6758 749.8506 Z" clip-path="url(#clipPath2)"/>
      <text x="983.0049" xml:space="preserve" y="757.2139" clip-path="url(#clipPath2)" font-family="sans-serif" stroke="none">Darwin</text>
      <text x="988.6709" xml:space="preserve" y="771.915" clip-path="url(#clipPath2)" font-family="sans-serif" stroke="none">Core</text>
    </g>
    <g fill="rgb(232,238,247)" text-rendering="geometricPrecision" shape-rendering="geometricPrecision" transform="matrix(1,0,0,1,-258,-48)" stroke="rgb(232,238,247)">
      <path d="M971.6758 791.8506 L1031.6758 791.8506 L1041.6758 801.8506 L1041.6758 831.8506 L961.6758 831.8506 L961.6758 801.8506 Z" stroke="none" clip-path="url(#clipPath2)"/>
    </g>
    <g text-rendering="geometricPrecision" stroke-miterlimit="1.45" shape-rendering="geometricPrecision" transform="matrix(1,0,0,1,-258,-48)" stroke-linecap="butt">
      <path fill="none" d="M971.6758 791.8506 L1031.6758 791.8506 L1041.6758 801.8506 L1041.6758 831.8506 L961.6758 831.8506 L961.6758 801.8506 Z" clip-path="url(#clipPath2)"/>
      <text x="983.6699" xml:space="preserve" y="816.5645" clip-path="url(#clipPath2)" font-family="sans-serif" stroke="none">Outros</text>
    </g>
    <g fill="rgb(255,204,153)" text-rendering="geometricPrecision" shape-rendering="geometricPrecision" transform="matrix(1,0,0,1,-258,-48)" stroke="rgb(255,204,153)">
      <path d="M661.3311 725 L847.3311 725 L847.3311 776 L661.3311 776 Z" stroke="none" clip-path="url(#clipPath2)"/>
    </g>
    <g text-rendering="geometricPrecision" stroke-miterlimit="1.45" shape-rendering="geometricPrecision" transform="matrix(1,0,0,1,-258,-48)" stroke-linecap="butt">
      <path fill="none" d="M661.3311 725 L847.3311 725 L847.3311 776 L661.3311 776 Z" clip-path="url(#clipPath2)"/>
      <text x="675.9678" xml:space="preserve" y="747.8633" clip-path="url(#clipPath2)" font-family="sans-serif" stroke="none">Harmonização com classes e</text>
      <text x="669.2852" xml:space="preserve" y="762.5645" clip-path="url(#clipPath2)" font-family="sans-serif" stroke="none">termos de padrões já existentes</text>
    </g>
    <g fill="rgb(255,255,153)" text-rendering="geometricPrecision" shape-rendering="geometricPrecision" transform="matrix(1,0,0,1,-258,-48)" stroke="rgb(255,255,153)">
      <path d="M915.2129 338.3018 L1025.8379 338.3018 Q1013.0879 363.8018 1025.8379 389.3018 L915.2129 389.3018 Q902.4629 363.8018 915.2129 338.3018 Z" stroke="none" clip-path="url(#clipPath2)"/>
    </g>
    <g text-rendering="geometricPrecision" stroke-miterlimit="1.45" shape-rendering="geometricPrecision" transform="matrix(1,0,0,1,-258,-48)" stroke-linecap="butt">
      <path fill="none" d="M915.2129 338.3018 L1025.8379 338.3018 Q1013.0879 363.8018 1025.8379 389.3018 L915.2129 389.3018 Q902.4629 363.8018 915.2129 338.3018 Z" clip-path="url(#clipPath2)"/>
      <text x="924.3213" xml:space="preserve" y="361.165" clip-path="url(#clipPath2)" font-family="sans-serif" stroke="none">Lista de Termos</text>
      <text x="930.6553" xml:space="preserve" y="375.8662" clip-path="url(#clipPath2)" font-family="sans-serif" stroke="none">dos Recursos</text>
    </g>
    <g fill="rgb(255,255,153)" text-rendering="geometricPrecision" shape-rendering="geometricPrecision" transform="matrix(1,0,0,1,-258,-48)" stroke="rgb(255,255,153)">
      <path d="M493.875 338.3018 L604.5 338.3018 Q591.75 363.8018 604.5 389.3018 L493.875 389.3018 Q481.125 363.8018 493.875 338.3018 Z" stroke="none" clip-path="url(#clipPath2)"/>
    </g>
    <g text-rendering="geometricPrecision" stroke-miterlimit="1.45" shape-rendering="geometricPrecision" transform="matrix(1,0,0,1,-258,-48)" stroke-linecap="butt">
      <path fill="none" d="M493.875 338.3018 L604.5 338.3018 Q591.75 363.8018 604.5 389.3018 L493.875 389.3018 Q481.125 363.8018 493.875 338.3018 Z" clip-path="url(#clipPath2)"/>
      <text x="504.9814" xml:space="preserve" y="353.8145" clip-path="url(#clipPath2)" font-family="sans-serif" stroke="none">Lista de termos</text>
      <text x="496.9658" xml:space="preserve" y="368.5156" clip-path="url(#clipPath2)" font-family="sans-serif" stroke="none">gerados na oficina</text>
      <text x="512.6396" xml:space="preserve" y="383.2168" clip-path="url(#clipPath2)" font-family="sans-serif" stroke="none">de demanda</text>
    </g>
    <g fill="rgb(255,255,153)" text-rendering="geometricPrecision" shape-rendering="geometricPrecision" transform="matrix(1,0,0,1,-258,-48)" stroke="rgb(255,255,153)">
      <path d="M493.875 592.5 L604.5 592.5 Q591.75 618 604.5 643.5 L493.875 643.5 Q481.125 618 493.875 592.5 Z" stroke="none" clip-path="url(#clipPath2)"/>
    </g>
    <g text-rendering="geometricPrecision" stroke-miterlimit="1.45" shape-rendering="geometricPrecision" transform="matrix(1,0,0,1,-258,-48)" stroke-linecap="butt">
      <path fill="none" d="M493.875 592.5 L604.5 592.5 Q591.75 618 604.5 643.5 L493.875 643.5 Q481.125 618 493.875 592.5 Z" clip-path="url(#clipPath2)"/>
      <text x="504.9814" xml:space="preserve" y="608.0127" clip-path="url(#clipPath2)" font-family="sans-serif" stroke="none">Lista de termos</text>
      <text x="503.9766" xml:space="preserve" y="622.7139" clip-path="url(#clipPath2)" font-family="sans-serif" stroke="none">que necessitam</text>
      <text x="497.9766" xml:space="preserve" y="637.415" clip-path="url(#clipPath2)" font-family="sans-serif" stroke="none">de sistematização</text>
    </g>
    <g fill="rgb(255,255,153)" text-rendering="geometricPrecision" shape-rendering="geometricPrecision" transform="matrix(1,0,0,1,-258,-48)" stroke="rgb(255,255,153)">
      <path d="M779.375 592.5 L890 592.5 Q877.25 618 890 643.5 L779.375 643.5 Q766.625 618 779.375 592.5 Z" stroke="none" clip-path="url(#clipPath2)"/>
    </g>
    <g text-rendering="geometricPrecision" stroke-miterlimit="1.45" shape-rendering="geometricPrecision" transform="matrix(1,0,0,1,-258,-48)" stroke-linecap="butt">
      <path fill="none" d="M779.375 592.5 L890 592.5 Q877.25 618 890 643.5 L779.375 643.5 Q766.625 618 779.375 592.5 Z" clip-path="url(#clipPath2)"/>
      <text x="788.4834" xml:space="preserve" y="615.3633" clip-path="url(#clipPath2)" font-family="sans-serif" stroke="none">Lista de Termos</text>
      <text x="804.4941" xml:space="preserve" y="630.0645" clip-path="url(#clipPath2)" font-family="sans-serif" stroke="none">Preliminar</text>
    </g>
    <g fill="rgb(204,255,204)" text-rendering="geometricPrecision" shape-rendering="geometricPrecision" transform="matrix(1,0,0,1,-258,-48)" stroke="rgb(204,255,204)">
      <path d="M665.6621 863.75 L683.3959 831.25 L825.2662 831.25 L843 863.75 L825.2662 896.25 L683.3959 896.25 Z" fill-rule="evenodd" clip-path="url(#clipPath2)" stroke="none"/>
    </g>
    <g text-rendering="geometricPrecision" stroke-miterlimit="1.45" shape-rendering="geometricPrecision" transform="matrix(1,0,0,1,-258,-48)" stroke-linecap="butt">
      <path fill="none" d="M665.6621 863.75 L683.3959 831.25 L825.2662 831.25 L843 863.75 L825.2662 896.25 L683.3959 896.25 Z" fill-rule="evenodd" clip-path="url(#clipPath2)"/>
      <text x="693.2969" xml:space="preserve" y="861.1133" clip-path="url(#clipPath2)" font-family="sans-serif" stroke="none">Oficina para elaborar a</text>
      <text x="680.9629" xml:space="preserve" y="875.8145" clip-path="url(#clipPath2)" font-family="sans-serif" stroke="none">Lista de Termos Acordados</text>
    </g>
    <g fill="rgb(232,238,247)" text-rendering="geometricPrecision" shape-rendering="geometricPrecision" transform="matrix(1,0,0,1,-258,-48)" stroke="rgb(232,238,247)">
      <path d="M432.1561 846.6982 L609.7061 846.6982 L599.506 886.6982 L421.9561 886.6982 Z" stroke="none" clip-path="url(#clipPath2)"/>
    </g>
    <g text-rendering="geometricPrecision" stroke-miterlimit="1.45" shape-rendering="geometricPrecision" transform="matrix(1,0,0,1,-258,-48)" stroke-linecap="butt">
      <path fill="none" d="M432.1561 846.6982 L609.7061 846.6982 L599.506 886.6982 L421.9561 886.6982 Z" clip-path="url(#clipPath2)"/>
      <text x="447.4668" xml:space="preserve" y="864.0615" clip-path="url(#clipPath2)" font-family="sans-serif" stroke="none">Ferramentas e protocolos</text>
      <text x="447.1123" xml:space="preserve" y="878.7627" clip-path="url(#clipPath2)" font-family="sans-serif" stroke="none">para publicação de dados</text>
    </g>
    <g fill="rgb(255,153,204)" text-rendering="geometricPrecision" shape-rendering="geometricPrecision" transform="matrix(1,0,0,1,-258,-48)" stroke="rgb(255,153,204)">
      <path d="M679.9932 962.6753 Q717.1621 985.0259 754.3311 962.6753 Q791.5 940.3247 828.6689 962.6753 L828.6689 1029.7271 Q791.5 1007.3765 754.3311 1029.7271 Q717.1621 1052.0776 679.9932 1029.7271 Z" stroke="none" clip-path="url(#clipPath2)"/>
    </g>
    <g text-rendering="geometricPrecision" stroke-miterlimit="1.45" shape-rendering="geometricPrecision" transform="matrix(1,0,0,1,-258,-48)" stroke-linecap="butt">
      <path fill="none" d="M679.9932 962.6753 Q717.1621 985.0259 754.3311 962.6753 Q791.5 940.3247 828.6689 962.6753 L828.6689 1029.7271 Q791.5 1007.3765 754.3311 1029.7271 Q717.1621 1052.0776 679.9932 1029.7271 Z" clip-path="url(#clipPath2)"/>
      <text x="700.9609" xml:space="preserve" y="986.2139" clip-path="url(#clipPath2)" font-family="sans-serif" stroke="none">Proposta de Padrão</text>
      <text x="708.9707" xml:space="preserve" y="1000.915" clip-path="url(#clipPath2)" font-family="sans-serif" stroke="none">para as espécies</text>
      <text x="723.3115" xml:space="preserve" y="1015.6162" clip-path="url(#clipPath2)" font-family="sans-serif" stroke="none">ameaçadas</text>
    </g>
    <g fill="rgb(204,255,204)" text-rendering="geometricPrecision" shape-rendering="geometricPrecision" transform="matrix(1,0,0,1,-258,-48)" stroke="rgb(204,255,204)">
      <path d="M427.1621 996.2012 L444.8959 963.7012 L586.7662 963.7012 L604.5 996.2012 L586.7662 1028.7012 L444.8959 1028.7012 Z" fill-rule="evenodd" clip-path="url(#clipPath2)" stroke="none"/>
    </g>
    <g text-rendering="geometricPrecision" stroke-miterlimit="1.45" shape-rendering="geometricPrecision" transform="matrix(1,0,0,1,-258,-48)" stroke-linecap="butt">
      <path fill="none" d="M427.1621 996.2012 L444.8959 963.7012 L586.7662 963.7012 L604.5 996.2012 L586.7662 1028.7012 L444.8959 1028.7012 Z" fill-rule="evenodd" clip-path="url(#clipPath2)"/>
      <text x="463.1318" xml:space="preserve" y="986.2139" clip-path="url(#clipPath2)" font-family="sans-serif" stroke="none">Oficina de definição</text>
      <text x="460.8057" xml:space="preserve" y="1000.915" clip-path="url(#clipPath2)" font-family="sans-serif" stroke="none">dos mecanismos de </text>
      <text x="457.7881" xml:space="preserve" y="1015.6162" clip-path="url(#clipPath2)" font-family="sans-serif" stroke="none">publicação dos dados</text>
    </g>
    <g fill="rgb(255,153,204)" text-rendering="geometricPrecision" shape-rendering="geometricPrecision" transform="matrix(1,0,0,1,-258,-48)" stroke="rgb(255,153,204)">
      <path d="M441.4932 1104.6782 Q478.6621 1127.0288 515.8311 1104.6782 Q553 1082.3276 590.1689 1104.6782 L590.1689 1171.73 Q553 1149.3794 515.8311 1171.73 Q478.6621 1194.0806 441.4932 1171.73 Z" stroke="none" clip-path="url(#clipPath2)"/>
    </g>
    <g text-rendering="geometricPrecision" stroke-miterlimit="1.45" shape-rendering="geometricPrecision" transform="matrix(1,0,0,1,-258,-48)" stroke-linecap="butt">
      <path fill="none" d="M441.4932 1104.6782 Q478.6621 1127.0288 515.8311 1104.6782 Q553 1082.3276 590.1689 1104.6782 L590.1689 1171.73 Q553 1149.3794 515.8311 1171.73 Q478.6621 1194.0806 441.4932 1171.73 Z" clip-path="url(#clipPath2)"/>
      <text x="483.4756" xml:space="preserve" y="1128.2168" clip-path="url(#clipPath2)" font-family="sans-serif" stroke="none">Proposta de</text>
      <text x="473.8135" xml:space="preserve" y="1142.918" clip-path="url(#clipPath2)" font-family="sans-serif" stroke="none">Mecanismos de</text>
      <text x="486.4785" xml:space="preserve" y="1157.6191" clip-path="url(#clipPath2)" font-family="sans-serif" stroke="none">Publicação</text>
    </g>
    <g fill="rgb(204,255,204)" text-rendering="geometricPrecision" shape-rendering="geometricPrecision" transform="matrix(1,0,0,1,-258,-48)" stroke="rgb(204,255,204)">
      <path d="M665.663 1138.2046 L683.3967 1105.7046 L825.2671 1105.7046 L843.0009 1138.2046 L825.2671 1170.7046 L683.3967 1170.7046 Z" fill-rule="evenodd" clip-path="url(#clipPath2)" stroke="none"/>
    </g>
    <g text-rendering="geometricPrecision" stroke-miterlimit="1.45" shape-rendering="geometricPrecision" transform="matrix(1,0,0,1,-258,-48)" stroke-linecap="butt">
      <path fill="none" d="M665.663 1138.2046 L683.3967 1105.7046 L825.2671 1105.7046 L843.0009 1138.2046 L825.2671 1170.7046 L683.3967 1170.7046 Z" fill-rule="evenodd" clip-path="url(#clipPath2)"/>
      <text x="689.2891" xml:space="preserve" y="1128.2168" clip-path="url(#clipPath2)" font-family="sans-serif" stroke="none">Oficina de apresentação</text>
      <text x="714.6367" xml:space="preserve" y="1142.918" clip-path="url(#clipPath2)" font-family="sans-serif" stroke="none">dos produtos e</text>
      <text x="722.9775" xml:space="preserve" y="1157.6191" clip-path="url(#clipPath2)" font-family="sans-serif" stroke="none">fechamento</text>
      <path fill="none" d="M946.6935 750.5 L855.3657 750.5" clip-path="url(#clipPath2)"/>
      <path d="M847.3657 750.5 L859.3657 755.5 L856.3657 750.5 L859.3657 745.5 Z" clip-path="url(#clipPath2)" stroke="none"/>
      <path fill="none" d="M967.3379 308.3196 L967.3379 330.3092" clip-path="url(#clipPath2)"/>
      <path d="M967.3379 338.3092 L972.3379 326.3092 L967.3379 329.3092 L962.3379 326.3092 Z" clip-path="url(#clipPath2)" stroke="none"/>
      <path fill="none" d="M921.6007 389.2888 L819.6758 446.0866" clip-path="url(#clipPath2)"/>
      <path d="M812.6876 449.9808 L825.6038 448.5071 L820.5493 445.5998 L820.736 439.7719 Z" clip-path="url(#clipPath2)" stroke="none"/>
      <path fill="none" d="M420.012 363.8018 L479.5276 363.8018" clip-path="url(#clipPath2)"/>
      <path d="M487.5276 363.8018 L475.5276 358.8018 L478.5276 363.8018 L475.5276 368.8018 Z" clip-path="url(#clipPath2)" stroke="none"/>
      <path fill="none" d="M590.7332 389.2888 L690.3046 446.0204" clip-path="url(#clipPath2)"/>
      <path d="M697.2555 449.9807 L689.3043 439.6959 L689.4357 445.5254 L684.3539 448.3846 Z" clip-path="url(#clipPath2)" stroke="none"/>
      <path fill="none" d="M704.3591 515.0021 L591.9481 588.1151" clip-path="url(#clipPath2)"/>
      <path d="M585.2418 592.4769 L598.0274 590.1255 L592.7864 587.5698 L592.5751 581.7427 Z" clip-path="url(#clipPath2)" stroke="none"/>
      <path fill="none" d="M586.1047 643.5069 L707.4544 720.6862" clip-path="url(#clipPath2)"/>
      <path d="M714.2048 724.9794 L706.7625 714.3206 L706.6107 720.1495 L701.3959 722.7585 Z" clip-path="url(#clipPath2)" stroke="none"/>
      <path fill="none" d="M772.8508 515.0187 L813.0075 585.5293" clip-path="url(#clipPath2)"/>
      <path d="M816.9666 592.481 L815.3727 579.579 L812.5126 584.6603 L806.6832 584.5278 Z" clip-path="url(#clipPath2)" stroke="none"/>
      <path fill="none" d="M816.6352 643.5231 L773.2184 718.0703" clip-path="url(#clipPath2)"/>
      <path d="M769.1922 724.9833 L779.5521 717.1301 L773.7217 717.2061 L770.9108 712.0974 Z" clip-path="url(#clipPath2)" stroke="none"/>
      <path fill="none" d="M754.3311 776.02 L754.3311 823.2368" clip-path="url(#clipPath2)"/>
      <path d="M754.3311 831.2368 L759.3311 819.2368 L754.3311 822.2368 L749.3311 819.2368 Z" clip-path="url(#clipPath2)" stroke="none"/>
      <path fill="none" d="M754.3311 896.2484 L754.3311 954.6721" clip-path="url(#clipPath2)"/>
      <path d="M754.3311 962.6721 L759.3311 950.6721 L754.3311 953.6721 L749.3311 950.6721 Z" clip-path="url(#clipPath2)" stroke="none"/>
      <path fill="none" d="M515.8311 886.7117 L515.8311 955.7232" clip-path="url(#clipPath2)"/>
      <path d="M515.8311 963.7232 L520.8311 951.7232 L515.8311 954.7232 L510.8311 951.7232 Z" clip-path="url(#clipPath2)" stroke="none"/>
      <path fill="none" d="M680.0036 996.2012 L612.5307 996.2012" clip-path="url(#clipPath2)"/>
      <path d="M604.5307 996.2012 L616.5307 1001.2012 L613.5307 996.2012 L616.5307 991.2012 Z" clip-path="url(#clipPath2)" stroke="none"/>
      <path fill="none" d="M515.8311 1028.6857 L515.8311 1096.7015" clip-path="url(#clipPath2)"/>
      <path d="M515.8311 1104.7015 L520.8311 1092.7015 L515.8311 1095.7015 L510.8311 1092.7015 Z" clip-path="url(#clipPath2)" stroke="none"/>
      <path fill="none" d="M590.1585 1138.2041 L657.6314 1138.2041" clip-path="url(#clipPath2)"/>
      <path d="M665.6314 1138.2041 L653.6314 1133.2041 L656.6314 1138.2041 L653.6314 1143.2041 Z" clip-path="url(#clipPath2)" stroke="none"/>
      <path fill="none" d="M754.3311 1029.7258 L754.3311 1097.7083" clip-path="url(#clipPath2)"/>
      <path d="M754.3311 1105.7083 L759.3311 1093.7083 L754.3311 1096.7083 L749.3311 1093.7083 Z" clip-path="url(#clipPath2)" stroke="none"/>
    </g>
  </g>
</svg>
