<?xml version="1.0" encoding="UTF-8"?><svg xmlns="http://www.w3.org/2000/svg" xmlns:xlink="http://www.w3.org/1999/xlink" fill-opacity="1" color-rendering="auto" color-interpolation="auto" text-rendering="auto" stroke="black" stroke-linecap="square" width="699" stroke-miterlimit="10" shape-rendering="auto" stroke-opacity="1" fill="black" stroke-dasharray="none" font-weight="normal" stroke-width="1" height="1158" font-family="'Dialog'" font-style="normal" stroke-linejoin="miter" font-size="12px" stroke-dashoffset="0" image-rendering="auto">
  <!--Generated by ySVG 2.6-->
  <defs id="genericDefs"/>
  <g>
    <defs id="defs1">
      <linearGradient x1="346.5" gradientUnits="userSpaceOnUse" x2="426.5" y1="123.0947" y2="163.0947" id="linearGradient1" spreadMethod="reflect">
        <stop stop-opacity="1" stop-color="rgb(232,238,247)" offset="0%"/>
        <stop stop-opacity="1" stop-color="rgb(232,238,247)" offset="100%"/>
      </linearGradient>
      <linearGradient x1="496.5" gradientUnits="userSpaceOnUse" x2="576.5" y1="127.3965" y2="167.3965" id="linearGradient2" spreadMethod="reflect">
        <stop stop-opacity="1" stop-color="rgb(232,238,247)" offset="0%"/>
        <stop stop-opacity="1" stop-color="rgb(232,238,247)" offset="100%"/>
      </linearGradient>
      <linearGradient x1="587.5" gradientUnits="userSpaceOnUse" x2="667.5" y1="127.3965" y2="167.3965" id="linearGradient3" spreadMethod="reflect">
        <stop stop-opacity="1" stop-color="rgb(232,238,247)" offset="0%"/>
        <stop stop-opacity="1" stop-color="rgb(232,238,247)" offset="100%"/>
      </linearGradient>
      <linearGradient x1="835.5" gradientUnits="userSpaceOnUse" x2="915.5" y1="129.0947" y2="169.0947" id="linearGradient4" spreadMethod="reflect">
        <stop stop-opacity="1" stop-color="rgb(232,238,247)" offset="0%"/>
        <stop stop-opacity="1" stop-color="rgb(232,238,247)" offset="100%"/>
      </linearGradient>
      <clipPath clipPathUnits="userSpaceOnUse" id="clipPath1">
        <path d="M0 0 L699 0 L699 1158 L0 1158 L0 0 Z"/>
      </clipPath>
      <clipPath clipPathUnits="userSpaceOnUse" id="clipPath2">
        <path d="M301 40 L1000 40 L1000 1198 L301 1198 L301 40 Z"/>
      </clipPath>
    </defs>
    <g fill="white" text-rendering="geometricPrecision" shape-rendering="geometricPrecision" transform="translate(-301,-40)" stroke="white">
      <rect x="301" width="699" height="1158" y="40" clip-path="url(#clipPath2)" stroke="none"/>
    </g>
    <g fill="rgb(104,176,227)" text-rendering="geometricPrecision" shape-rendering="geometricPrecision" transform="matrix(1,0,0,1,-301,-40)" stroke="rgb(104,176,227)">
      <path d="M316.5 55.6924 L316.5 223.2959 L984.1758 223.2959 L984.1758 55.6924 ZM317.5 77.6924 L317.5 222.2959 L983.1758 222.2959 L983.1758 77.6924 Z" fill-rule="evenodd" clip-path="url(#clipPath2)" stroke="none"/>
    </g>
    <g stroke-linecap="butt" transform="matrix(1,0,0,1,-301,-40)" fill="white" text-rendering="geometricPrecision" font-family="sans-serif" shape-rendering="geometricPrecision" stroke="white" stroke-miterlimit="1.45">
      <text x="318.5" xml:space="preserve" y="69.7568" clip-path="url(#clipPath2)" stroke="none">Recursos</text>
    </g>
    <g fill="rgb(104,176,227)" text-rendering="geometricPrecision" shape-rendering="geometricPrecision" transform="matrix(1,0,0,1,-301,-40)" stroke="rgb(104,176,227)">
      <path d="M331.5 89.3936 L331.5 182.3965 L476.5 182.3965 L476.5 89.3936 ZM332.5 111.3936 L332.5 181.3965 L475.5 181.3965 L475.5 111.3936 Z" fill-rule="evenodd" clip-path="url(#clipPath2)" stroke="none"/>
    </g>
    <g stroke-linecap="butt" transform="matrix(1,0,0,1,-301,-40)" fill="white" text-rendering="geometricPrecision" font-family="sans-serif" shape-rendering="geometricPrecision" stroke="white" stroke-miterlimit="1.45">
      <text x="333.5" xml:space="preserve" y="103.458" clip-path="url(#clipPath2)" stroke="none">CNCFlora</text>
    </g>
    <g fill="url(#linearGradient1)" text-rendering="geometricPrecision" shape-rendering="geometricPrecision" transform="matrix(1,0,0,1,-301,-40)" stroke="url(#linearGradient1)">
      <rect x="346.5" y="123.0947" clip-path="url(#clipPath2)" width="80" rx="20" ry="20" height="40" stroke="none"/>
    </g>
    <g text-rendering="geometricPrecision" stroke-miterlimit="1.45" shape-rendering="geometricPrecision" transform="matrix(1,0,0,1,-301,-40)" stroke-linecap="butt">
      <rect x="346.5" y="123.0947" clip-path="url(#clipPath2)" fill="none" width="80" rx="20" ry="20" height="40"/>
      <text x="354.1562" xml:space="preserve" y="147.8086" clip-path="url(#clipPath2)" font-family="sans-serif" stroke="none">WebService</text>
    </g>
    <g fill="rgb(104,176,227)" text-rendering="geometricPrecision" shape-rendering="geometricPrecision" transform="matrix(1,0,0,1,-301,-40)" stroke="rgb(104,176,227)">
      <path d="M481.5 92.9941 L481.5 208.2959 L708.5 208.2959 L708.5 92.9941 ZM482.5 114.9941 L482.5 207.2959 L707.5 207.2959 L707.5 114.9941 Z" fill-rule="evenodd" clip-path="url(#clipPath2)" stroke="none"/>
    </g>
    <g stroke-linecap="butt" transform="matrix(1,0,0,1,-301,-40)" fill="white" text-rendering="geometricPrecision" font-family="sans-serif" shape-rendering="geometricPrecision" stroke="white" stroke-miterlimit="1.45">
      <text x="483.5" xml:space="preserve" y="107.0586" clip-path="url(#clipPath2)" stroke="none">Flora</text>
    </g>
    <g fill="url(#linearGradient2)" text-rendering="geometricPrecision" shape-rendering="geometricPrecision" transform="matrix(1,0,0,1,-301,-40)" stroke="url(#linearGradient2)">
      <rect x="496.5" y="127.3965" clip-path="url(#clipPath2)" width="80" rx="20" ry="20" height="40" stroke="none"/>
    </g>
    <g text-rendering="geometricPrecision" stroke-miterlimit="1.45" shape-rendering="geometricPrecision" transform="matrix(1,0,0,1,-301,-40)" stroke-linecap="butt">
      <rect x="496.5" y="127.3965" clip-path="url(#clipPath2)" fill="none" width="80" rx="20" ry="20" height="40"/>
      <text x="502.835" xml:space="preserve" y="152.1104" clip-path="url(#clipPath2)" font-family="sans-serif" stroke="none">IPT - DwC-A</text>
    </g>
    <g fill="url(#linearGradient3)" text-rendering="geometricPrecision" shape-rendering="geometricPrecision" transform="matrix(1,0,0,1,-301,-40)" stroke="url(#linearGradient3)">
      <rect x="587.5" y="127.3965" clip-path="url(#clipPath2)" width="80" rx="20" ry="20" height="40" stroke="none"/>
    </g>
    <g text-rendering="geometricPrecision" stroke-miterlimit="1.45" shape-rendering="geometricPrecision" transform="matrix(1,0,0,1,-301,-40)" stroke-linecap="butt">
      <rect x="587.5" y="127.3965" clip-path="url(#clipPath2)" fill="none" width="80" rx="20" ry="20" height="40"/>
      <text x="595.1562" xml:space="preserve" y="152.1104" clip-path="url(#clipPath2)" font-family="sans-serif" stroke="none">WebService</text>
    </g>
    <g fill="rgb(104,176,227)" text-rendering="geometricPrecision" shape-rendering="geometricPrecision" transform="matrix(1,0,0,1,-301,-40)" stroke="rgb(104,176,227)">
      <path d="M713.5 92.9941 L713.5 182.3965 L817.8379 182.3965 L817.8379 92.9941 ZM714.5 114.9941 L714.5 181.3965 L816.8379 181.3965 L816.8379 114.9941 Z" fill-rule="evenodd" clip-path="url(#clipPath2)" stroke="none"/>
    </g>
    <g stroke-linecap="butt" transform="matrix(1,0,0,1,-301,-40)" fill="white" text-rendering="geometricPrecision" font-family="sans-serif" shape-rendering="geometricPrecision" stroke="white" stroke-miterlimit="1.45">
      <text x="715.5" xml:space="preserve" y="107.0586" clip-path="url(#clipPath2)" stroke="none">SALVE</text>
    </g>
    <g fill="rgb(104,176,227)" text-rendering="geometricPrecision" shape-rendering="geometricPrecision" transform="matrix(1,0,0,1,-301,-40)" stroke="rgb(104,176,227)">
      <path d="M820.5 92.9941 L820.5 184.0947 L969.1758 184.0947 L969.1758 92.9941 ZM821.5 114.9941 L821.5 183.0947 L968.1758 183.0947 L968.1758 114.9941 Z" fill-rule="evenodd" clip-path="url(#clipPath2)" stroke="none"/>
    </g>
    <g stroke-linecap="butt" transform="matrix(1,0,0,1,-301,-40)" fill="white" text-rendering="geometricPrecision" font-family="sans-serif" shape-rendering="geometricPrecision" stroke="white" stroke-miterlimit="1.45">
      <text x="822.5" xml:space="preserve" y="107.0586" clip-path="url(#clipPath2)" stroke="none">Fauna</text>
    </g>
    <g fill="url(#linearGradient4)" text-rendering="geometricPrecision" shape-rendering="geometricPrecision" transform="matrix(1,0,0,1,-301,-40)" stroke="url(#linearGradient4)">
      <rect x="835.5" y="129.0947" clip-path="url(#clipPath2)" width="80" rx="20" ry="20" height="40" stroke="none"/>
    </g>
    <g text-rendering="geometricPrecision" stroke-miterlimit="1.45" shape-rendering="geometricPrecision" transform="matrix(1,0,0,1,-301,-40)" stroke-linecap="butt">
      <rect x="835.5" y="129.0947" clip-path="url(#clipPath2)" fill="none" width="80" rx="20" ry="20" height="40"/>
      <text x="843.1562" xml:space="preserve" y="153.8086" clip-path="url(#clipPath2)" font-family="sans-serif" stroke="none">WebService</text>
    </g>
    <g fill="rgb(255,204,153)" text-rendering="geometricPrecision" shape-rendering="geometricPrecision" transform="matrix(1,0,0,1,-301,-40)" stroke="rgb(255,204,153)">
      <path d="M640.8379 260.7988 L804.8379 260.7988 L804.8379 300.7988 L640.8379 300.7988 Z" stroke="none" clip-path="url(#clipPath2)"/>
    </g>
    <g text-rendering="geometricPrecision" stroke-miterlimit="1.45" shape-rendering="geometricPrecision" transform="matrix(1,0,0,1,-301,-40)" stroke-linecap="butt">
      <path fill="none" d="M640.8379 260.7988 L804.8379 260.7988 L804.8379 300.7988 L640.8379 300.7988 Z" clip-path="url(#clipPath2)"/>
      <text x="650.8086" xml:space="preserve" y="278.1621" clip-path="url(#clipPath2)" font-family="sans-serif" stroke="none">Sistematização dos termos</text>
      <text x="663.4736" xml:space="preserve" y="292.8633" clip-path="url(#clipPath2)" font-family="sans-serif" stroke="none">presentes nos recurso</text>
    </g>
    <g fill="rgb(204,255,204)" text-rendering="geometricPrecision" shape-rendering="geometricPrecision" transform="matrix(1,0,0,1,-301,-40)" stroke="rgb(204,255,204)">
      <path d="M383.2871 363.8018 L397.9208 341.3018 L514.9905 341.3018 L529.625 363.8018 L514.9905 386.3018 L397.9208 386.3018 Z" fill-rule="evenodd" clip-path="url(#clipPath2)" stroke="none"/>
    </g>
    <g text-rendering="geometricPrecision" stroke-miterlimit="1.45" shape-rendering="geometricPrecision" transform="matrix(1,0,0,1,-301,-40)" stroke-linecap="butt">
      <path fill="none" d="M383.2871 363.8018 L397.9208 341.3018 L514.9905 341.3018 L529.625 363.8018 L514.9905 386.3018 L397.9208 386.3018 Z" fill-rule="evenodd" clip-path="url(#clipPath2)"/>
      <text x="401.7588" xml:space="preserve" y="361.165" clip-path="url(#clipPath2)" font-family="sans-serif" stroke="none">Oficina de Demanda</text>
      <text x="416.1113" xml:space="preserve" y="375.8662" clip-path="url(#clipPath2)" font-family="sans-serif" stroke="none">do MMA/DESP</text>
    </g>
    <g fill="rgb(204,255,204)" text-rendering="geometricPrecision" shape-rendering="geometricPrecision" transform="matrix(1,0,0,1,-301,-40)" stroke="rgb(204,255,204)">
      <path d="M665.6621 482.5 L683.3957 450 L825.2664 450 L843 482.5 L825.2664 515 L683.3957 515 Z" fill-rule="evenodd" clip-path="url(#clipPath2)" stroke="none"/>
    </g>
    <g text-rendering="geometricPrecision" stroke-miterlimit="1.45" shape-rendering="geometricPrecision" transform="matrix(1,0,0,1,-301,-40)" stroke-linecap="butt">
      <path fill="none" d="M665.6621 482.5 L683.3957 450 L825.2664 450 L843 482.5 L825.2664 515 L683.3957 515 Z" fill-rule="evenodd" clip-path="url(#clipPath2)"/>
      <text x="685.29" xml:space="preserve" y="472.5127" clip-path="url(#clipPath2)" font-family="sans-serif" stroke="none">Oficina para consolidação</text>
      <text x="688.293" xml:space="preserve" y="487.2139" clip-path="url(#clipPath2)" font-family="sans-serif" stroke="none">dos termos demandados</text>
      <text x="686.9629" xml:space="preserve" y="501.915" clip-path="url(#clipPath2)" font-family="sans-serif" stroke="none">e presentes nos recursos</text>
      <path fill="none" d="M693.3317 223.2903 L708.9135 253.6597" clip-path="url(#clipPath2)"/>
      <path d="M712.5654 260.7776 L711.5362 247.8184 L708.457 252.77 L702.6389 252.3833 Z" clip-path="url(#clipPath2)" stroke="none"/>
    </g>
    <g fill="rgb(104,176,227)" text-rendering="geometricPrecision" shape-rendering="geometricPrecision" transform="matrix(1,0,0,1,-301,-40)" stroke="rgb(104,176,227)">
      <path d="M460.8311 623.9971 L460.8311 816.6982 L570.8311 816.6982 L570.8311 623.9971 ZM461.8311 645.9971 L461.8311 815.6982 L569.8311 815.6982 L569.8311 645.9971 Z" fill-rule="evenodd" clip-path="url(#clipPath2)" stroke="none"/>
    </g>
    <g stroke-linecap="butt" transform="matrix(1,0,0,1,-301,-40)" fill="white" text-rendering="geometricPrecision" font-family="sans-serif" shape-rendering="geometricPrecision" stroke="white" stroke-miterlimit="1.45">
      <text x="462.8311" xml:space="preserve" y="638.0615" clip-path="url(#clipPath2)" stroke="none">Padrões</text>
    </g>
    <g fill="rgb(232,238,247)" text-rendering="geometricPrecision" shape-rendering="geometricPrecision" transform="matrix(1,0,0,1,-301,-40)" stroke="rgb(232,238,247)">
      <path d="M485.8311 657.6982 L545.8311 657.6982 L555.8311 667.6982 L555.8311 697.6982 L475.8311 697.6982 L475.8311 667.6982 Z" stroke="none" clip-path="url(#clipPath2)"/>
    </g>
    <g text-rendering="geometricPrecision" stroke-miterlimit="1.45" shape-rendering="geometricPrecision" transform="matrix(1,0,0,1,-301,-40)" stroke-linecap="butt">
      <path fill="none" d="M485.8311 657.6982 L545.8311 657.6982 L555.8311 667.6982 L555.8311 697.6982 L475.8311 697.6982 L475.8311 667.6982 Z" clip-path="url(#clipPath2)"/>
      <text x="501.165" xml:space="preserve" y="682.4121" clip-path="url(#clipPath2)" font-family="sans-serif" stroke="none">IUCN</text>
    </g>
    <g fill="rgb(232,238,247)" text-rendering="geometricPrecision" shape-rendering="geometricPrecision" transform="matrix(1,0,0,1,-301,-40)" stroke="rgb(232,238,247)">
      <path d="M485.8311 709.6982 L545.8311 709.6982 L555.8311 719.6982 L555.8311 749.6982 L475.8311 749.6982 L475.8311 719.6982 Z" stroke="none" clip-path="url(#clipPath2)"/>
    </g>
    <g text-rendering="geometricPrecision" stroke-miterlimit="1.45" shape-rendering="geometricPrecision" transform="matrix(1,0,0,1,-301,-40)" stroke-linecap="butt">
      <path fill="none" d="M485.8311 709.6982 L545.8311 709.6982 L555.8311 719.6982 L555.8311 749.6982 L475.8311 749.6982 L475.8311 719.6982 Z" clip-path="url(#clipPath2)"/>
      <text x="497.1602" xml:space="preserve" y="727.0615" clip-path="url(#clipPath2)" font-family="sans-serif" stroke="none">Darwin</text>
      <text x="502.8262" xml:space="preserve" y="741.7627" clip-path="url(#clipPath2)" font-family="sans-serif" stroke="none">Core</text>
    </g>
    <g fill="rgb(232,238,247)" text-rendering="geometricPrecision" shape-rendering="geometricPrecision" transform="matrix(1,0,0,1,-301,-40)" stroke="rgb(232,238,247)">
      <path d="M485.8311 761.6982 L545.8311 761.6982 L555.8311 771.6982 L555.8311 801.6982 L475.8311 801.6982 L475.8311 771.6982 Z" stroke="none" clip-path="url(#clipPath2)"/>
    </g>
    <g text-rendering="geometricPrecision" stroke-miterlimit="1.45" shape-rendering="geometricPrecision" transform="matrix(1,0,0,1,-301,-40)" stroke-linecap="butt">
      <path fill="none" d="M485.8311 761.6982 L545.8311 761.6982 L555.8311 771.6982 L555.8311 801.6982 L475.8311 801.6982 L475.8311 771.6982 Z" clip-path="url(#clipPath2)"/>
      <text x="497.8252" xml:space="preserve" y="786.4121" clip-path="url(#clipPath2)" font-family="sans-serif" stroke="none">Outros</text>
    </g>
    <g fill="rgb(255,204,153)" text-rendering="geometricPrecision" shape-rendering="geometricPrecision" transform="matrix(1,0,0,1,-301,-40)" stroke="rgb(255,204,153)">
      <path d="M661.3311 694.8477 L847.3311 694.8477 L847.3311 745.8477 L661.3311 745.8477 Z" stroke="none" clip-path="url(#clipPath2)"/>
    </g>
    <g text-rendering="geometricPrecision" stroke-miterlimit="1.45" shape-rendering="geometricPrecision" transform="matrix(1,0,0,1,-301,-40)" stroke-linecap="butt">
      <path fill="none" d="M661.3311 694.8477 L847.3311 694.8477 L847.3311 745.8477 L661.3311 745.8477 Z" clip-path="url(#clipPath2)"/>
      <text x="675.9678" xml:space="preserve" y="717.7109" clip-path="url(#clipPath2)" font-family="sans-serif" stroke="none">Harmonização com classes e</text>
      <text x="669.2852" xml:space="preserve" y="732.4121" clip-path="url(#clipPath2)" font-family="sans-serif" stroke="none">termos de padrões já existentes</text>
    </g>
    <g fill="rgb(255,255,153)" text-rendering="geometricPrecision" shape-rendering="geometricPrecision" transform="matrix(1,0,0,1,-301,-40)" stroke="rgb(255,255,153)">
      <path d="M786.0439 338.3018 L896.6689 338.3018 Q883.9189 363.8018 896.6689 389.3018 L786.0439 389.3018 Q773.2939 363.8018 786.0439 338.3018 Z" stroke="none" clip-path="url(#clipPath2)"/>
    </g>
    <g text-rendering="geometricPrecision" stroke-miterlimit="1.45" shape-rendering="geometricPrecision" transform="matrix(1,0,0,1,-301,-40)" stroke-linecap="butt">
      <path fill="none" d="M786.0439 338.3018 L896.6689 338.3018 Q883.9189 363.8018 896.6689 389.3018 L786.0439 389.3018 Q773.2939 363.8018 786.0439 338.3018 Z" clip-path="url(#clipPath2)"/>
      <text x="795.1523" xml:space="preserve" y="361.165" clip-path="url(#clipPath2)" font-family="sans-serif" stroke="none">Lista de Termos</text>
      <text x="801.4863" xml:space="preserve" y="375.8662" clip-path="url(#clipPath2)" font-family="sans-serif" stroke="none">dos Recursos</text>
    </g>
    <g fill="rgb(255,255,153)" text-rendering="geometricPrecision" shape-rendering="geometricPrecision" transform="matrix(1,0,0,1,-301,-40)" stroke="rgb(255,255,153)">
      <path d="M575.375 338.3018 L686 338.3018 Q673.25 363.8018 686 389.3018 L575.375 389.3018 Q562.625 363.8018 575.375 338.3018 Z" stroke="none" clip-path="url(#clipPath2)"/>
    </g>
    <g text-rendering="geometricPrecision" stroke-miterlimit="1.45" shape-rendering="geometricPrecision" transform="matrix(1,0,0,1,-301,-40)" stroke-linecap="butt">
      <path fill="none" d="M575.375 338.3018 L686 338.3018 Q673.25 363.8018 686 389.3018 L575.375 389.3018 Q562.625 363.8018 575.375 338.3018 Z" clip-path="url(#clipPath2)"/>
      <text x="586.4814" xml:space="preserve" y="353.8145" clip-path="url(#clipPath2)" font-family="sans-serif" stroke="none">Lista de termos</text>
      <text x="578.4658" xml:space="preserve" y="368.5156" clip-path="url(#clipPath2)" font-family="sans-serif" stroke="none">gerados na oficina</text>
      <text x="594.1396" xml:space="preserve" y="383.2168" clip-path="url(#clipPath2)" font-family="sans-serif" stroke="none">de demanda</text>
    </g>
    <g fill="rgb(255,255,153)" text-rendering="geometricPrecision" shape-rendering="geometricPrecision" transform="matrix(1,0,0,1,-301,-40)" stroke="rgb(255,255,153)">
      <path d="M618.875 592.5 L729.5 592.5 Q716.75 618 729.5 643.5 L618.875 643.5 Q606.125 618 618.875 592.5 Z" stroke="none" clip-path="url(#clipPath2)"/>
    </g>
    <g text-rendering="geometricPrecision" stroke-miterlimit="1.45" shape-rendering="geometricPrecision" transform="matrix(1,0,0,1,-301,-40)" stroke-linecap="butt">
      <path fill="none" d="M618.875 592.5 L729.5 592.5 Q716.75 618 729.5 643.5 L618.875 643.5 Q606.125 618 618.875 592.5 Z" clip-path="url(#clipPath2)"/>
      <text x="629.9814" xml:space="preserve" y="608.0127" clip-path="url(#clipPath2)" font-family="sans-serif" stroke="none">Lista de termos</text>
      <text x="628.9766" xml:space="preserve" y="622.7139" clip-path="url(#clipPath2)" font-family="sans-serif" stroke="none">que necessitam</text>
      <text x="622.9766" xml:space="preserve" y="637.415" clip-path="url(#clipPath2)" font-family="sans-serif" stroke="none">de sistematização</text>
    </g>
    <g fill="rgb(255,255,153)" text-rendering="geometricPrecision" shape-rendering="geometricPrecision" transform="matrix(1,0,0,1,-301,-40)" stroke="rgb(255,255,153)">
      <path d="M779.375 592.5 L890 592.5 Q877.25 618 890 643.5 L779.375 643.5 Q766.625 618 779.375 592.5 Z" stroke="none" clip-path="url(#clipPath2)"/>
    </g>
    <g text-rendering="geometricPrecision" stroke-miterlimit="1.45" shape-rendering="geometricPrecision" transform="matrix(1,0,0,1,-301,-40)" stroke-linecap="butt">
      <path fill="none" d="M779.375 592.5 L890 592.5 Q877.25 618 890 643.5 L779.375 643.5 Q766.625 618 779.375 592.5 Z" clip-path="url(#clipPath2)"/>
      <text x="788.4834" xml:space="preserve" y="615.3633" clip-path="url(#clipPath2)" font-family="sans-serif" stroke="none">Lista de Termos</text>
      <text x="804.4941" xml:space="preserve" y="630.0645" clip-path="url(#clipPath2)" font-family="sans-serif" stroke="none">Preliminar</text>
    </g>
    <g fill="rgb(204,255,204)" text-rendering="geometricPrecision" shape-rendering="geometricPrecision" transform="matrix(1,0,0,1,-301,-40)" stroke="rgb(204,255,204)">
      <path d="M665.6621 863.75 L683.3959 831.25 L825.2662 831.25 L843 863.75 L825.2662 896.25 L683.3959 896.25 Z" fill-rule="evenodd" clip-path="url(#clipPath2)" stroke="none"/>
    </g>
    <g text-rendering="geometricPrecision" stroke-miterlimit="1.45" shape-rendering="geometricPrecision" transform="matrix(1,0,0,1,-301,-40)" stroke-linecap="butt">
      <path fill="none" d="M665.6621 863.75 L683.3959 831.25 L825.2662 831.25 L843 863.75 L825.2662 896.25 L683.3959 896.25 Z" fill-rule="evenodd" clip-path="url(#clipPath2)"/>
      <text x="693.2969" xml:space="preserve" y="861.1133" clip-path="url(#clipPath2)" font-family="sans-serif" stroke="none">Oficina para elaborar a</text>
      <text x="680.9629" xml:space="preserve" y="875.8145" clip-path="url(#clipPath2)" font-family="sans-serif" stroke="none">Lista de Termos Acordados</text>
    </g>
    <g fill="rgb(232,238,247)" text-rendering="geometricPrecision" shape-rendering="geometricPrecision" transform="matrix(1,0,0,1,-301,-40)" stroke="rgb(232,238,247)">
      <path d="M432.1561 846.6982 L609.7061 846.6982 L599.506 886.6982 L421.9561 886.6982 Z" stroke="none" clip-path="url(#clipPath2)"/>
    </g>
    <g text-rendering="geometricPrecision" stroke-miterlimit="1.45" shape-rendering="geometricPrecision" transform="matrix(1,0,0,1,-301,-40)" stroke-linecap="butt">
      <path fill="none" d="M432.1561 846.6982 L609.7061 846.6982 L599.506 886.6982 L421.9561 886.6982 Z" clip-path="url(#clipPath2)"/>
      <text x="447.4668" xml:space="preserve" y="864.0615" clip-path="url(#clipPath2)" font-family="sans-serif" stroke="none">Ferramentas e protocolos</text>
      <text x="447.1123" xml:space="preserve" y="878.7627" clip-path="url(#clipPath2)" font-family="sans-serif" stroke="none">para publicação de dados</text>
    </g>
    <g fill="rgb(255,153,204)" text-rendering="geometricPrecision" shape-rendering="geometricPrecision" transform="matrix(1,0,0,1,-301,-40)" stroke="rgb(255,153,204)">
      <path d="M679.9932 962.6753 Q717.1621 985.0259 754.3311 962.6753 Q791.5 940.3247 828.6689 962.6753 L828.6689 1029.7271 Q791.5 1007.3765 754.3311 1029.7271 Q717.1621 1052.0776 679.9932 1029.7271 Z" stroke="none" clip-path="url(#clipPath2)"/>
    </g>
    <g text-rendering="geometricPrecision" stroke-miterlimit="1.45" shape-rendering="geometricPrecision" transform="matrix(1,0,0,1,-301,-40)" stroke-linecap="butt">
      <path fill="none" d="M679.9932 962.6753 Q717.1621 985.0259 754.3311 962.6753 Q791.5 940.3247 828.6689 962.6753 L828.6689 1029.7271 Q791.5 1007.3765 754.3311 1029.7271 Q717.1621 1052.0776 679.9932 1029.7271 Z" clip-path="url(#clipPath2)"/>
      <text x="700.9609" xml:space="preserve" y="986.2139" clip-path="url(#clipPath2)" font-family="sans-serif" stroke="none">Proposta de Padrão</text>
      <text x="708.9707" xml:space="preserve" y="1000.915" clip-path="url(#clipPath2)" font-family="sans-serif" stroke="none">para as espécies</text>
      <text x="723.3115" xml:space="preserve" y="1015.6162" clip-path="url(#clipPath2)" font-family="sans-serif" stroke="none">ameaçadas</text>
    </g>
    <g fill="rgb(204,255,204)" text-rendering="geometricPrecision" shape-rendering="geometricPrecision" transform="matrix(1,0,0,1,-301,-40)" stroke="rgb(204,255,204)">
      <path d="M427.1621 996.2012 L444.8959 963.7012 L586.7662 963.7012 L604.5 996.2012 L586.7662 1028.7012 L444.8959 1028.7012 Z" fill-rule="evenodd" clip-path="url(#clipPath2)" stroke="none"/>
    </g>
    <g text-rendering="geometricPrecision" stroke-miterlimit="1.45" shape-rendering="geometricPrecision" transform="matrix(1,0,0,1,-301,-40)" stroke-linecap="butt">
      <path fill="none" d="M427.1621 996.2012 L444.8959 963.7012 L586.7662 963.7012 L604.5 996.2012 L586.7662 1028.7012 L444.8959 1028.7012 Z" fill-rule="evenodd" clip-path="url(#clipPath2)"/>
      <text x="463.1318" xml:space="preserve" y="986.2139" clip-path="url(#clipPath2)" font-family="sans-serif" stroke="none">Oficina de definição</text>
      <text x="460.8057" xml:space="preserve" y="1000.915" clip-path="url(#clipPath2)" font-family="sans-serif" stroke="none">dos mecanismos de </text>
      <text x="457.7881" xml:space="preserve" y="1015.6162" clip-path="url(#clipPath2)" font-family="sans-serif" stroke="none">publicação dos dados</text>
    </g>
    <g fill="rgb(255,153,204)" text-rendering="geometricPrecision" shape-rendering="geometricPrecision" transform="matrix(1,0,0,1,-301,-40)" stroke="rgb(255,153,204)">
      <path d="M441.4932 1104.6782 Q478.6621 1127.0288 515.8311 1104.6782 Q553 1082.3276 590.1689 1104.6782 L590.1689 1171.73 Q553 1149.3794 515.8311 1171.73 Q478.6621 1194.0806 441.4932 1171.73 Z" stroke="none" clip-path="url(#clipPath2)"/>
    </g>
    <g text-rendering="geometricPrecision" stroke-miterlimit="1.45" shape-rendering="geometricPrecision" transform="matrix(1,0,0,1,-301,-40)" stroke-linecap="butt">
      <path fill="none" d="M441.4932 1104.6782 Q478.6621 1127.0288 515.8311 1104.6782 Q553 1082.3276 590.1689 1104.6782 L590.1689 1171.73 Q553 1149.3794 515.8311 1171.73 Q478.6621 1194.0806 441.4932 1171.73 Z" clip-path="url(#clipPath2)"/>
      <text x="483.4756" xml:space="preserve" y="1128.2168" clip-path="url(#clipPath2)" font-family="sans-serif" stroke="none">Proposta de</text>
      <text x="473.8135" xml:space="preserve" y="1142.918" clip-path="url(#clipPath2)" font-family="sans-serif" stroke="none">Mecanismos de</text>
      <text x="486.4785" xml:space="preserve" y="1157.6191" clip-path="url(#clipPath2)" font-family="sans-serif" stroke="none">Publicação</text>
    </g>
    <g fill="rgb(204,255,204)" text-rendering="geometricPrecision" shape-rendering="geometricPrecision" transform="matrix(1,0,0,1,-301,-40)" stroke="rgb(204,255,204)">
      <path d="M665.663 1138.2046 L683.3967 1105.7046 L825.2671 1105.7046 L843.0009 1138.2046 L825.2671 1170.7046 L683.3967 1170.7046 Z" fill-rule="evenodd" clip-path="url(#clipPath2)" stroke="none"/>
    </g>
    <g text-rendering="geometricPrecision" stroke-miterlimit="1.45" shape-rendering="geometricPrecision" transform="matrix(1,0,0,1,-301,-40)" stroke-linecap="butt">
      <path fill="none" d="M665.663 1138.2046 L683.3967 1105.7046 L825.2671 1105.7046 L843.0009 1138.2046 L825.2671 1170.7046 L683.3967 1170.7046 Z" fill-rule="evenodd" clip-path="url(#clipPath2)"/>
      <text x="689.2891" xml:space="preserve" y="1128.2168" clip-path="url(#clipPath2)" font-family="sans-serif" stroke="none">Oficina de apresentação</text>
      <text x="714.6367" xml:space="preserve" y="1142.918" clip-path="url(#clipPath2)" font-family="sans-serif" stroke="none">dos produtos e</text>
      <text x="722.9775" xml:space="preserve" y="1157.6191" clip-path="url(#clipPath2)" font-family="sans-serif" stroke="none">fechamento</text>
      <path fill="none" d="M570.827 720.3477 L653.3694 720.3477" clip-path="url(#clipPath2)"/>
      <path d="M661.3694 720.3477 L649.3694 715.3477 L652.3694 720.3477 L649.3694 725.3477 Z" clip-path="url(#clipPath2)" stroke="none"/>
      <path fill="none" d="M750.6288 300.7998 L796.2621 333.6418" clip-path="url(#clipPath2)"/>
      <path d="M802.7554 338.3149 L795.9362 327.2469 L795.4505 333.0576 L790.0948 335.3635 Z" clip-path="url(#clipPath2)" stroke="none"/>
      <path fill="none" d="M820.1774 389.2744 L781.8865 443.4868" clip-path="url(#clipPath2)"/>
      <path d="M777.2712 450.0213 L788.2781 443.1042 L782.4634 442.67 L780.1101 437.3351 Z" clip-path="url(#clipPath2)" stroke="none"/>
      <path fill="none" d="M529.6592 363.8018 L560.9771 363.8018" clip-path="url(#clipPath2)"/>
      <path d="M568.9771 363.8018 L556.9771 358.8018 L559.9771 363.8018 L556.9771 368.8018 Z" clip-path="url(#clipPath2)" stroke="none"/>
      <path fill="none" d="M654.7179 389.2744 L713.7859 444.5547" clip-path="url(#clipPath2)"/>
      <path d="M719.627 450.0212 L714.282 438.1709 L713.0558 443.8714 L707.4489 445.4721 Z" clip-path="url(#clipPath2)" stroke="none"/>
      <path fill="none" d="M734.3324 515.0187 L690.8848 585.6665" clip-path="url(#clipPath2)"/>
      <path d="M686.694 592.481 L697.2393 584.8785 L691.4086 584.8147 L688.7211 579.64 Z" clip-path="url(#clipPath2)" stroke="none"/>
      <path fill="none" d="M691.7717 643.512 L728.5389 688.6696" clip-path="url(#clipPath2)"/>
      <path d="M733.59 694.8733 L729.8907 682.4108 L727.9075 687.8941 L722.136 688.7246 Z" clip-path="url(#clipPath2)" stroke="none"/>
      <path fill="none" d="M772.8508 515.0187 L813.0075 585.5293" clip-path="url(#clipPath2)"/>
      <path d="M816.9666 592.481 L815.3727 579.579 L812.5126 584.6603 L806.6832 584.5278 Z" clip-path="url(#clipPath2)" stroke="none"/>
      <path fill="none" d="M812.2643 643.512 L778.3547 688.4856" clip-path="url(#clipPath2)"/>
      <path d="M773.5384 694.8734 L784.7552 688.3019 L778.9567 687.6871 L776.7705 682.2816 Z" clip-path="url(#clipPath2)" stroke="none"/>
      <path fill="none" d="M754.3311 745.8702 L754.3311 823.2582" clip-path="url(#clipPath2)"/>
      <path d="M754.3311 831.2582 L759.3311 819.2582 L754.3311 822.2582 L749.3311 819.2582 Z" clip-path="url(#clipPath2)" stroke="none"/>
      <path fill="none" d="M754.3311 896.2484 L754.3311 954.6721" clip-path="url(#clipPath2)"/>
      <path d="M754.3311 962.6721 L759.3311 950.6721 L754.3311 953.6721 L749.3311 950.6721 Z" clip-path="url(#clipPath2)" stroke="none"/>
      <path fill="none" d="M515.8311 886.7117 L515.8311 955.7232" clip-path="url(#clipPath2)"/>
      <path d="M515.8311 963.7232 L520.8311 951.7232 L515.8311 954.7232 L510.8311 951.7232 Z" clip-path="url(#clipPath2)" stroke="none"/>
      <path fill="none" d="M680.0036 996.2012 L612.5307 996.2012" clip-path="url(#clipPath2)"/>
      <path d="M604.5307 996.2012 L616.5307 1001.2012 L613.5307 996.2012 L616.5307 991.2012 Z" clip-path="url(#clipPath2)" stroke="none"/>
      <path fill="none" d="M515.8311 1028.6857 L515.8311 1096.7015" clip-path="url(#clipPath2)"/>
      <path d="M515.8311 1104.7015 L520.8311 1092.7015 L515.8311 1095.7015 L510.8311 1092.7015 Z" clip-path="url(#clipPath2)" stroke="none"/>
      <path fill="none" d="M590.1585 1138.2041 L657.6314 1138.2041" clip-path="url(#clipPath2)"/>
      <path d="M665.6314 1138.2041 L653.6314 1133.2041 L656.6314 1138.2041 L653.6314 1143.2041 Z" clip-path="url(#clipPath2)" stroke="none"/>
      <path fill="none" d="M754.3311 1029.7258 L754.3311 1097.7083" clip-path="url(#clipPath2)"/>
      <path d="M754.3311 1105.7083 L759.3311 1093.7083 L754.3311 1096.7083 L749.3311 1093.7083 Z" clip-path="url(#clipPath2)" stroke="none"/>
    </g>
  </g>
</svg>
